<?xml version="1.0" encoding="UTF-8" standalone="no"?>
<!DOCTYPE svg PUBLIC "-//W3C//DTD SVG 1.1//EN"
 "http://www.w3.org/Graphics/SVG/1.1/DTD/svg11.dtd">
<!-- Generated by graphviz version 2.43.0 (0)
 -->
<!-- Title: G Pages: 1 -->
<svg width="5804pt" height="762pt"
 viewBox="0.00 0.00 5804.50 762.00" xmlns="http://www.w3.org/2000/svg" xmlns:xlink="http://www.w3.org/1999/xlink">
<g id="graph0" class="graph" transform="scale(1 1) rotate(0) translate(4 758)">
<title>G</title>
<polygon fill="white" stroke="transparent" points="-4,4 -4,-758 5800.5,-758 5800.5,4 -4,4"/>
<!-- object_0000000047d2d35e000000005b2771cf -->
<g id="node1" class="node">
<title>object_0000000047d2d35e000000005b2771cf</title>
<g id="a_node1"><a xlink:href="file://src/Client/Client.php" xlink:title="Innmind\\Rest\\Client\\Client\\Client">
<polygon fill="#00ff00" stroke="black" points="301.47,-236 226.07,-254 75.25,-254 -0.16,-236 75.25,-218 226.07,-218 301.47,-236"/>
<text text-anchor="middle" x="150.66" y="-231.8" font-family="Times,serif" font-size="14.00">Innmind\Rest\Client\Client\Client</text>
</a>
</g>
</g>
<!-- object_0000000047d2d354000000005b2771cf -->
<g id="node2" class="node">
<title>object_0000000047d2d354000000005b2771cf</title>
<g id="a_node2"><a xlink:href="file://src/Server/RetryServerFactory.php" xlink:title="Innmind\\Rest\\Client\\Server\\RetryServerFactory">
<ellipse fill="none" stroke="black" cx="557.03" cy="-272" rx="180.13" ry="18"/>
<text text-anchor="middle" x="557.03" y="-267.8" font-family="Times,serif" font-size="14.00">Innmind\Rest\Client\Server\RetryServerFactory</text>
</a>
</g>
</g>
<!-- object_0000000047d2d35e000000005b2771cf&#45;&gt;object_0000000047d2d354000000005b2771cf -->
<g id="edge1" class="edge">
<title>object_0000000047d2d35e000000005b2771cf&#45;&gt;object_0000000047d2d354000000005b2771cf</title>
<path fill="none" stroke="black" d="M260.82,-245.72C307.21,-249.85 361.96,-254.72 411.63,-259.14"/>
<polygon fill="black" stroke="black" points="411.55,-262.65 421.82,-260.05 412.17,-255.68 411.55,-262.65"/>
<text text-anchor="middle" x="339.14" y="-256.8" font-family="Times,serif" font-size="14.00">make</text>
</g>
<!-- object_0000000047d2d301000000005b2771cf -->
<g id="node3" class="node">
<title>object_0000000047d2d301000000005b2771cf</title>
<g id="a_node3"><a xlink:href="file://vendor/innmind/immutable/src/Map.php" xlink:title="Innmind\\Immutable\\Map">
<ellipse fill="none" stroke="black" cx="557.03" cy="-218" rx="99.52" ry="18"/>
<text text-anchor="middle" x="557.03" y="-213.8" font-family="Times,serif" font-size="14.00">Innmind\Immutable\Map</text>
</a>
</g>
</g>
<!-- object_0000000047d2d35e000000005b2771cf&#45;&gt;object_0000000047d2d301000000005b2771cf -->
<g id="edge2" class="edge">
<title>object_0000000047d2d35e000000005b2771cf&#45;&gt;object_0000000047d2d301000000005b2771cf</title>
<path fill="none" stroke="black" d="M273.44,-229.24C288.88,-228.45 304.47,-227.68 319.32,-227 361.64,-225.06 408.23,-223.22 448.81,-221.72"/>
<polygon fill="black" stroke="black" points="449.12,-225.21 458.98,-221.35 448.86,-218.22 449.12,-225.21"/>
<text text-anchor="middle" x="339.14" y="-229.8" font-family="Times,serif" font-size="14.00">servers</text>
</g>
<!-- object_0000000047d2d355000000005b2771cf -->
<g id="node4" class="node">
<title>object_0000000047d2d355000000005b2771cf</title>
<g id="a_node4"><a xlink:href="file://src/Server/ServerFactory.php" xlink:title="Innmind\\Rest\\Client\\Server\\ServerFactory">
<ellipse fill="none" stroke="black" cx="963.82" cy="-272" rx="160.33" ry="18"/>
<text text-anchor="middle" x="963.82" y="-267.8" font-family="Times,serif" font-size="14.00">Innmind\Rest\Client\Server\ServerFactory</text>
</a>
</g>
</g>
<!-- object_0000000047d2d354000000005b2771cf&#45;&gt;object_0000000047d2d355000000005b2771cf -->
<g id="edge3" class="edge">
<title>object_0000000047d2d354000000005b2771cf&#45;&gt;object_0000000047d2d355000000005b2771cf</title>
<path fill="none" stroke="black" d="M737.34,-272C755.9,-272 774.72,-272 793.17,-272"/>
<polygon fill="black" stroke="black" points="793.37,-275.5 803.37,-272 793.37,-268.5 793.37,-275.5"/>
<text text-anchor="middle" x="770.25" y="-274.8" font-family="Times,serif" font-size="14.00">make</text>
</g>
<!-- object_0000000047d2d3f4000000005b2771cf -->
<g id="node5" class="node">
<title>object_0000000047d2d3f4000000005b2771cf</title>
<g id="a_node5"><a xlink:href="file://vendor/innmind/http-transport/src/DefaultTransport.php" xlink:title="Innmind\\HttpTransport\\DefaultTransport">
<polygon fill="#ffb600" stroke="black" points="3494.19,-414 3248.24,-414 3248.24,-378 3494.19,-378 3494.19,-414"/>
<text text-anchor="middle" x="3371.22" y="-391.8" font-family="Times,serif" font-size="14.00">Innmind\HttpTransport\DefaultTransport</text>
</a>
</g>
</g>
<!-- object_0000000047d2d355000000005b2771cf&#45;&gt;object_0000000047d2d3f4000000005b2771cf -->
<g id="edge4" class="edge">
<title>object_0000000047d2d355000000005b2771cf&#45;&gt;object_0000000047d2d3f4000000005b2771cf</title>
<path fill="none" stroke="black" d="M1031.89,-288.4C1137.94,-312.84 1351.14,-356 1534.63,-356 1534.63,-356 1534.63,-356 2393.36,-356 2743.06,-356 2831.25,-346.52 3180.02,-372 3198.82,-373.37 3218.6,-375.31 3238.02,-377.5"/>
<polygon fill="black" stroke="black" points="3237.81,-381 3248.14,-378.67 3238.61,-374.05 3237.81,-381"/>
<text text-anchor="middle" x="2113.85" y="-358.8" font-family="Times,serif" font-size="14.00">transport</text>
</g>
<!-- object_0000000047d2d3f0000000005b2771cf -->
<g id="node6" class="node">
<title>object_0000000047d2d3f0000000005b2771cf</title>
<g id="a_node6"><a xlink:href="file://vendor/innmind/url-resolver/src/UrlResolver.php" xlink:title="Innmind\\UrlResolver\\UrlResolver">
<polygon fill="#ffb600" stroke="black" points="3475.3,-243 3267.14,-243 3267.14,-207 3475.3,-207 3475.3,-243"/>
<text text-anchor="middle" x="3371.22" y="-220.8" font-family="Times,serif" font-size="14.00">Innmind\UrlResolver\UrlResolver</text>
</a>
</g>
</g>
<!-- object_0000000047d2d355000000005b2771cf&#45;&gt;object_0000000047d2d3f0000000005b2771cf -->
<g id="edge5" class="edge">
<title>object_0000000047d2d355000000005b2771cf&#45;&gt;object_0000000047d2d3f0000000005b2771cf</title>
<path fill="none" stroke="black" d="M1018.85,-255.09C1081.4,-236.23 1187.85,-206.37 1281.52,-191 1392.84,-172.73 1421.82,-172 1534.63,-172 1534.63,-172 1534.63,-172 2752.39,-172 2929.09,-172 3133.19,-193.79 3256.91,-209.42"/>
<polygon fill="black" stroke="black" points="3256.79,-212.94 3267.15,-210.73 3257.67,-205.99 3256.79,-212.94"/>
<text text-anchor="middle" x="2113.85" y="-174.8" font-family="Times,serif" font-size="14.00">resolver</text>
</g>
<!-- object_0000000047d2d34f000000005b2771cf -->
<g id="node7" class="node">
<title>object_0000000047d2d34f000000005b2771cf</title>
<g id="a_node7"><a xlink:href="file://src/Response/ExtractIdentity.php" xlink:title="Innmind\\Rest\\Client\\Response\\ExtractIdentity">
<ellipse fill="none" stroke="black" cx="1535.63" cy="-218" rx="174.35" ry="18"/>
<text text-anchor="middle" x="1535.63" y="-213.8" font-family="Times,serif" font-size="14.00">Innmind\Rest\Client\Response\ExtractIdentity</text>
</a>
</g>
</g>
<!-- object_0000000047d2d355000000005b2771cf&#45;&gt;object_0000000047d2d34f000000005b2771cf -->
<g id="edge6" class="edge">
<title>object_0000000047d2d355000000005b2771cf&#45;&gt;object_0000000047d2d34f000000005b2771cf</title>
<path fill="none" stroke="black" d="M1082.67,-259.88C1102.55,-257.89 1122.98,-255.86 1142.24,-254 1225.32,-245.97 1318.34,-237.42 1392.95,-230.67"/>
<polygon fill="black" stroke="black" points="1393.71,-234.11 1403.36,-229.73 1393.08,-227.14 1393.71,-234.11"/>
<text text-anchor="middle" x="1202.88" y="-256.8" font-family="Times,serif" font-size="14.00">extractIdentity</text>
</g>
<!-- object_0000000047d2d351000000005b2771cf -->
<g id="node8" class="node">
<title>object_0000000047d2d351000000005b2771cf</title>
<g id="a_node8"><a xlink:href="file://src/Response/ExtractIdentities.php" xlink:title="Innmind\\Rest\\Client\\Response\\ExtractIdentities">
<ellipse fill="none" stroke="black" cx="1535.63" cy="-272" rx="179.66" ry="18"/>
<text text-anchor="middle" x="1535.63" y="-267.8" font-family="Times,serif" font-size="14.00">Innmind\Rest\Client\Response\ExtractIdentities</text>
</a>
</g>
</g>
<!-- object_0000000047d2d355000000005b2771cf&#45;&gt;object_0000000047d2d351000000005b2771cf -->
<g id="edge7" class="edge">
<title>object_0000000047d2d355000000005b2771cf&#45;&gt;object_0000000047d2d351000000005b2771cf</title>
<path fill="none" stroke="black" d="M1124.3,-272C1193.09,-272 1274.06,-272 1345.82,-272"/>
<polygon fill="black" stroke="black" points="1345.88,-275.5 1355.88,-272 1345.88,-268.5 1345.88,-275.5"/>
<text text-anchor="middle" x="1202.88" y="-274.8" font-family="Times,serif" font-size="14.00">extractIdentities</text>
</g>
<!-- object_0000000047d2d357000000005b2771cf -->
<g id="node9" class="node">
<title>object_0000000047d2d357000000005b2771cf</title>
<g id="a_node9"><a xlink:href="file://src/Serializer/Denormalizer/DenormalizeResource.php" xlink:title="Innmind\\Rest\\Client\\Serializer\\Denormalizer\\DenormalizeResource">
<ellipse fill="none" stroke="black" cx="1535.63" cy="-126" rx="250.53" ry="18"/>
<text text-anchor="middle" x="1535.63" y="-121.8" font-family="Times,serif" font-size="14.00">Innmind\Rest\Client\Serializer\Denormalizer\DenormalizeResource</text>
</a>
</g>
</g>
<!-- object_0000000047d2d355000000005b2771cf&#45;&gt;object_0000000047d2d357000000005b2771cf -->
<g id="edge8" class="edge">
<title>object_0000000047d2d355000000005b2771cf&#45;&gt;object_0000000047d2d357000000005b2771cf</title>
<path fill="none" stroke="black" d="M982.4,-253.74C1012.1,-224.29 1075.53,-167.25 1142.24,-144 1209.29,-120.63 1286.72,-113.29 1354.98,-112.81"/>
<polygon fill="black" stroke="black" points="1354.99,-116.31 1364.99,-112.79 1354.98,-109.31 1354.99,-116.31"/>
<text text-anchor="middle" x="1202.88" y="-146.8" font-family="Times,serif" font-size="14.00">denormalizeResource</text>
</g>
<!-- object_0000000047d2d345000000005b2771cf -->
<g id="node10" class="node">
<title>object_0000000047d2d345000000005b2771cf</title>
<g id="a_node10"><a xlink:href="file://src/Serializer/Normalizer/NormalizeResource.php" xlink:title="Innmind\\Rest\\Client\\Serializer\\Normalizer\\NormalizeResource">
<ellipse fill="none" stroke="black" cx="1535.63" cy="-72" rx="234.14" ry="18"/>
<text text-anchor="middle" x="1535.63" y="-67.8" font-family="Times,serif" font-size="14.00">Innmind\Rest\Client\Serializer\Normalizer\NormalizeResource</text>
</a>
</g>
</g>
<!-- object_0000000047d2d355000000005b2771cf&#45;&gt;object_0000000047d2d345000000005b2771cf -->
<g id="edge9" class="edge">
<title>object_0000000047d2d355000000005b2771cf&#45;&gt;object_0000000047d2d345000000005b2771cf</title>
<path fill="none" stroke="black" d="M976.88,-253.86C1002.36,-217.28 1065.69,-135.22 1142.24,-101 1208.07,-71.57 1286.32,-61.48 1355.57,-59.79"/>
<polygon fill="black" stroke="black" points="1355.78,-63.28 1365.72,-59.6 1355.65,-56.28 1355.78,-63.28"/>
<text text-anchor="middle" x="1202.88" y="-103.8" font-family="Times,serif" font-size="14.00">normalizeResource</text>
</g>
<!-- object_0000000047d2d367000000005b2771cf -->
<g id="node11" class="node">
<title>object_0000000047d2d367000000005b2771cf</title>
<g id="a_node11"><a xlink:href="file://src/Serializer/Encode/Json.php" xlink:title="Innmind\\Rest\\Client\\Serializer\\Encode\\Json">
<ellipse fill="none" stroke="black" cx="2751.39" cy="-402" rx="165.64" ry="18"/>
<text text-anchor="middle" x="2751.39" y="-397.8" font-family="Times,serif" font-size="14.00">Innmind\Rest\Client\Serializer\Encode\Json</text>
</a>
</g>
</g>
<!-- object_0000000047d2d355000000005b2771cf&#45;&gt;object_0000000047d2d367000000005b2771cf -->
<g id="edge10" class="edge">
<title>object_0000000047d2d355000000005b2771cf&#45;&gt;object_0000000047d2d367000000005b2771cf</title>
<path fill="none" stroke="black" d="M988.17,-289.82C1020.65,-313.41 1082.26,-353.9 1142.24,-370 1410.37,-441.98 2232.15,-421.45 2585.77,-408.69"/>
<polygon fill="black" stroke="black" points="2585.97,-412.19 2595.84,-408.33 2585.72,-405.19 2585.97,-412.19"/>
<text text-anchor="middle" x="1849.73" y="-423.8" font-family="Times,serif" font-size="14.00">encode</text>
</g>
<!-- object_0000000047d2d3b9000000005b2771cf -->
<g id="node12" class="node">
<title>object_0000000047d2d3b9000000005b2771cf</title>
<g id="a_node12"><a xlink:href="file://src/Serializer/Decode/Json.php" xlink:title="Innmind\\Rest\\Client\\Serializer\\Decode\\Json">
<ellipse fill="none" stroke="black" cx="3903.33" cy="-702" rx="166.12" ry="18"/>
<text text-anchor="middle" x="3903.33" y="-697.8" font-family="Times,serif" font-size="14.00">Innmind\Rest\Client\Serializer\Decode\Json</text>
</a>
</g>
</g>
<!-- object_0000000047d2d355000000005b2771cf&#45;&gt;object_0000000047d2d3b9000000005b2771cf -->
<g id="edge11" class="edge">
<title>object_0000000047d2d355000000005b2771cf&#45;&gt;object_0000000047d2d3b9000000005b2771cf</title>
<path fill="none" stroke="black" d="M974.71,-290.06C1023.23,-376.07 1245.64,-740 1534.63,-740 1534.63,-740 1534.63,-740 3372.22,-740 3511.21,-740 3670.19,-726.84 3777.5,-716.01"/>
<polygon fill="black" stroke="black" points="3778.12,-719.47 3787.72,-714.97 3777.42,-712.5 3778.12,-719.47"/>
<text text-anchor="middle" x="2392.36" y="-742.8" font-family="Times,serif" font-size="14.00">decode</text>
</g>
<!-- object_0000000047d2d370000000005b2771cf -->
<g id="node13" class="node">
<title>object_0000000047d2d370000000005b2771cf</title>
<g id="a_node13"><a xlink:href="file://src/Translator/Specification/SpecificationTranslator.php" xlink:title="Innmind\\Rest\\Client\\Translator\\Specification\\SpecificationTranslator">
<ellipse fill="none" stroke="black" cx="1535.63" cy="-18" rx="254.23" ry="18"/>
<text text-anchor="middle" x="1535.63" y="-13.8" font-family="Times,serif" font-size="14.00">Innmind\Rest\Client\Translator\Specification\SpecificationTranslator</text>
</a>
</g>
</g>
<!-- object_0000000047d2d355000000005b2771cf&#45;&gt;object_0000000047d2d370000000005b2771cf -->
<g id="edge12" class="edge">
<title>object_0000000047d2d355000000005b2771cf&#45;&gt;object_0000000047d2d370000000005b2771cf</title>
<path fill="none" stroke="black" d="M973,-253.86C993.88,-209.95 1053.85,-98.05 1142.24,-51 1212.7,-13.5 1300.51,-3.34 1375.19,-3.38"/>
<polygon fill="black" stroke="black" points="1375.61,-6.89 1385.64,-3.45 1375.66,0.11 1375.61,-6.89"/>
<text text-anchor="middle" x="1202.88" y="-53.8" font-family="Times,serif" font-size="14.00">translator</text>
</g>
<!-- object_0000000047d2d371000000005b2771cf -->
<g id="node14" class="node">
<title>object_0000000047d2d371000000005b2771cf</title>
<g id="a_node14"><a xlink:href="file://src/Formats.php" xlink:title="Innmind\\Rest\\Client\\Formats">
<ellipse fill="none" stroke="black" cx="3371.22" cy="-327" rx="113.54" ry="18"/>
<text text-anchor="middle" x="3371.22" y="-322.8" font-family="Times,serif" font-size="14.00">Innmind\Rest\Client\Formats</text>
</a>
</g>
</g>
<!-- object_0000000047d2d355000000005b2771cf&#45;&gt;object_0000000047d2d371000000005b2771cf -->
<g id="edge13" class="edge">
<title>object_0000000047d2d355000000005b2771cf&#45;&gt;object_0000000047d2d371000000005b2771cf</title>
<path fill="none" stroke="black" d="M1079.36,-284.54C1139.47,-290.42 1214.37,-296.64 1281.52,-299 2124.79,-328.66 2337.18,-269.96 3180.02,-310 3207.89,-311.32 3237.99,-313.61 3265.85,-316.09"/>
<polygon fill="black" stroke="black" points="3265.72,-319.6 3276,-317.01 3266.36,-312.63 3265.72,-319.6"/>
<text text-anchor="middle" x="2113.85" y="-308.8" font-family="Times,serif" font-size="14.00">formats</text>
</g>
<!-- object_0000000047d2d378000000005b2771cf -->
<g id="node15" class="node">
<title>object_0000000047d2d378000000005b2771cf</title>
<g id="a_node15"><a xlink:href="file://src/Server/Capabilities/RefreshLimitedFactory.php" xlink:title="Innmind\\Rest\\Client\\Server\\Capabilities\\RefreshLimitedFactory">
<ellipse fill="none" stroke="black" cx="1535.63" cy="-497" rx="237.57" ry="18"/>
<text text-anchor="middle" x="1535.63" y="-492.8" font-family="Times,serif" font-size="14.00">Innmind\Rest\Client\Server\Capabilities\RefreshLimitedFactory</text>
</a>
</g>
</g>
<!-- object_0000000047d2d355000000005b2771cf&#45;&gt;object_0000000047d2d378000000005b2771cf -->
<g id="edge14" class="edge">
<title>object_0000000047d2d355000000005b2771cf&#45;&gt;object_0000000047d2d378000000005b2771cf</title>
<path fill="none" stroke="black" d="M981.53,-290.02C1010.94,-320.57 1075.19,-382.29 1142.24,-414 1216.34,-449.04 1305.26,-469.4 1379.7,-481.18"/>
<polygon fill="black" stroke="black" points="1379.22,-484.65 1389.64,-482.72 1380.29,-477.73 1379.22,-484.65"/>
<text text-anchor="middle" x="1202.88" y="-456.8" font-family="Times,serif" font-size="14.00">capabilities</text>
</g>
<!-- object_0000000047d2d369000000005b2771cf -->
<g id="node16" class="node">
<title>object_0000000047d2d369000000005b2771cf</title>
<g id="a_node16"><a xlink:href="file://src/Visitor/ResolveIdentity.php" xlink:title="Innmind\\Rest\\Client\\Visitor\\ResolveIdentity">
<ellipse fill="none" stroke="black" cx="2113.85" cy="-225" rx="167.05" ry="18"/>
<text text-anchor="middle" x="2113.85" y="-220.8" font-family="Times,serif" font-size="14.00">Innmind\Rest\Client\Visitor\ResolveIdentity</text>
</a>
</g>
</g>
<!-- object_0000000047d2d34f000000005b2771cf&#45;&gt;object_0000000047d2d369000000005b2771cf -->
<g id="edge15" class="edge">
<title>object_0000000047d2d34f000000005b2771cf&#45;&gt;object_0000000047d2d369000000005b2771cf</title>
<path fill="none" stroke="black" d="M1708.73,-220.09C1780.95,-220.97 1864.83,-221.99 1937.4,-222.87"/>
<polygon fill="black" stroke="black" points="1937.52,-226.37 1947.56,-222.99 1937.61,-219.37 1937.52,-226.37"/>
<text text-anchor="middle" x="1849.73" y="-225.8" font-family="Times,serif" font-size="14.00">resolveIdentity</text>
</g>
<!-- object_0000000047d2d351000000005b2771cf&#45;&gt;object_0000000047d2d369000000005b2771cf -->
<g id="edge17" class="edge">
<title>object_0000000047d2d351000000005b2771cf&#45;&gt;object_0000000047d2d369000000005b2771cf</title>
<path fill="none" stroke="black" d="M1675.38,-260.68C1764.45,-253.42 1879.85,-244 1969.76,-236.67"/>
<polygon fill="black" stroke="black" points="1970.08,-240.16 1979.76,-235.86 1969.51,-233.18 1970.08,-240.16"/>
<text text-anchor="middle" x="1849.73" y="-251.8" font-family="Times,serif" font-size="14.00">resolveIdentity</text>
</g>
<!-- object_0000000047d2d36d000000005b2771cf -->
<g id="node17" class="node">
<title>object_0000000047d2d36d000000005b2771cf</title>
<g id="a_node17"><a xlink:href="file://vendor/innmind/immutable/src/Map.php" xlink:title="Innmind\\Immutable\\Map">
<ellipse fill="none" stroke="black" cx="3903.33" cy="-377" rx="99.52" ry="18"/>
<text text-anchor="middle" x="3903.33" y="-372.8" font-family="Times,serif" font-size="14.00">Innmind\Immutable\Map</text>
</a>
</g>
</g>
<!-- object_0000000047d2d371000000005b2771cf&#45;&gt;object_0000000047d2d36d000000005b2771cf -->
<g id="edge18" class="edge">
<title>object_0000000047d2d371000000005b2771cf&#45;&gt;object_0000000047d2d36d000000005b2771cf</title>
<path fill="none" stroke="black" d="M3469.45,-336.17C3564.62,-345.15 3708.83,-358.75 3804.28,-367.75"/>
<polygon fill="black" stroke="black" points="3804.23,-371.26 3814.52,-368.72 3804.89,-364.29 3804.23,-371.26"/>
<text text-anchor="middle" x="3597.01" y="-352.8" font-family="Times,serif" font-size="14.00">formats</text>
</g>
<!-- object_0000000047d2d373000000005b2771cf -->
<g id="node18" class="node">
<title>object_0000000047d2d373000000005b2771cf</title>
<g id="a_node18"><a xlink:href="file://vendor/willdurand/negotiation/src/Negotiation/Negotiator.php" xlink:title="Negotiation\\Negotiator">
<ellipse fill="none" stroke="black" cx="3903.33" cy="-323" rx="92.27" ry="18"/>
<text text-anchor="middle" x="3903.33" y="-318.8" font-family="Times,serif" font-size="14.00">Negotiation\Negotiator</text>
</a>
</g>
</g>
<!-- object_0000000047d2d371000000005b2771cf&#45;&gt;object_0000000047d2d373000000005b2771cf -->
<g id="edge19" class="edge">
<title>object_0000000047d2d371000000005b2771cf&#45;&gt;object_0000000047d2d373000000005b2771cf</title>
<path fill="none" stroke="black" d="M3484.97,-326.15C3578.49,-325.44 3710.31,-324.45 3800.64,-323.77"/>
<polygon fill="black" stroke="black" points="3800.92,-327.27 3810.89,-323.69 3800.87,-320.27 3800.92,-327.27"/>
<text text-anchor="middle" x="3597.01" y="-327.8" font-family="Times,serif" font-size="14.00">negotiator</text>
</g>
<!-- object_0000000047d2d379000000005b2771cf -->
<g id="node25" class="node">
<title>object_0000000047d2d379000000005b2771cf</title>
<g id="a_node25"><a xlink:href="file://src/Server/Capabilities/CacheFactory.php" xlink:title="Innmind\\Rest\\Client\\Server\\Capabilities\\CacheFactory">
<ellipse fill="none" stroke="black" cx="2113.85" cy="-533" rx="204.26" ry="18"/>
<text text-anchor="middle" x="2113.85" y="-528.8" font-family="Times,serif" font-size="14.00">Innmind\Rest\Client\Server\Capabilities\CacheFactory</text>
</a>
</g>
</g>
<!-- object_0000000047d2d378000000005b2771cf&#45;&gt;object_0000000047d2d379000000005b2771cf -->
<g id="edge27" class="edge">
<title>object_0000000047d2d378000000005b2771cf&#45;&gt;object_0000000047d2d379000000005b2771cf</title>
<path fill="none" stroke="black" d="M1719.34,-508.42C1788.78,-512.75 1867.68,-517.68 1936.51,-521.98"/>
<polygon fill="black" stroke="black" points="1936.4,-525.48 1946.59,-522.61 1936.83,-518.5 1936.4,-525.48"/>
<text text-anchor="middle" x="1849.73" y="-520.8" font-family="Times,serif" font-size="14.00">make</text>
</g>
<!-- object_0000000047d2d369000000005b2771cf&#45;&gt;object_0000000047d2d3f0000000005b2771cf -->
<g id="edge16" class="edge">
<title>object_0000000047d2d369000000005b2771cf&#45;&gt;object_0000000047d2d3f0000000005b2771cf</title>
<path fill="none" stroke="black" d="M2281.23,-225C2540.58,-225 3034.5,-225 3256.81,-225"/>
<polygon fill="black" stroke="black" points="3256.86,-228.5 3266.86,-225 3256.86,-221.5 3256.86,-228.5"/>
<text text-anchor="middle" x="2751.39" y="-227.8" font-family="Times,serif" font-size="14.00">resolve</text>
</g>
<!-- object_0000000047d2d341000000005b2771cf -->
<g id="node19" class="node">
<title>object_0000000047d2d341000000005b2771cf</title>
<g id="a_node19"><a xlink:href="file://src/Format/Format.php" xlink:title="Innmind\\Rest\\Client\\Format\\Format">
<ellipse fill="none" stroke="black" cx="4383.8" cy="-377" rx="138.17" ry="18"/>
<text text-anchor="middle" x="4383.8" y="-372.8" font-family="Times,serif" font-size="14.00">Innmind\Rest\Client\Format\Format</text>
</a>
</g>
</g>
<!-- object_0000000047d2d36d000000005b2771cf&#45;&gt;object_0000000047d2d341000000005b2771cf -->
<g id="edge20" class="edge">
<title>object_0000000047d2d36d000000005b2771cf&#45;&gt;object_0000000047d2d341000000005b2771cf</title>
<path fill="none" stroke="black" d="M4002.89,-377C4069.91,-377 4159.79,-377 4235.29,-377"/>
<polygon fill="black" stroke="black" points="4235.37,-380.5 4245.37,-377 4235.37,-373.5 4235.37,-380.5"/>
<text text-anchor="middle" x="4198.38" y="-379.8" font-family="Times,serif" font-size="14.00">value[0]</text>
</g>
<!-- object_0000000047d2d358000000005b2771cf -->
<g id="node20" class="node">
<title>object_0000000047d2d358000000005b2771cf</title>
<g id="a_node20"><a xlink:href="file://vendor/innmind/immutable/src/Set.php" xlink:title="Innmind\\Immutable\\Set">
<ellipse fill="none" stroke="black" cx="4702.82" cy="-425" rx="94.7" ry="18"/>
<text text-anchor="middle" x="4702.82" y="-420.8" font-family="Times,serif" font-size="14.00">Innmind\Immutable\Set</text>
</a>
</g>
</g>
<!-- object_0000000047d2d341000000005b2771cf&#45;&gt;object_0000000047d2d358000000005b2771cf -->
<g id="edge21" class="edge">
<title>object_0000000047d2d341000000005b2771cf&#45;&gt;object_0000000047d2d358000000005b2771cf</title>
<path fill="none" stroke="black" d="M4474.8,-390.63C4519.8,-397.44 4573.93,-405.64 4618.04,-412.32"/>
<polygon fill="black" stroke="black" points="4617.75,-415.81 4628.16,-413.85 4618.8,-408.89 4617.75,-415.81"/>
<text text-anchor="middle" x="4568.06" y="-408.8" font-family="Times,serif" font-size="14.00">types</text>
</g>
<!-- object_0000000047d2d344000000005b2771cf -->
<g id="node21" class="node">
<title>object_0000000047d2d344000000005b2771cf</title>
<g id="a_node21"><a xlink:href="file://src/Format/MediaType.php" xlink:title="Innmind\\Rest\\Client\\Format\\MediaType">
<ellipse fill="none" stroke="black" cx="4993.35" cy="-391" rx="152.86" ry="18"/>
<text text-anchor="middle" x="4993.35" y="-386.8" font-family="Times,serif" font-size="14.00">Innmind\Rest\Client\Format\MediaType</text>
</a>
</g>
</g>
<!-- object_0000000047d2d341000000005b2771cf&#45;&gt;object_0000000047d2d344000000005b2771cf -->
<g id="edge22" class="edge">
<title>object_0000000047d2d341000000005b2771cf&#45;&gt;object_0000000047d2d344000000005b2771cf</title>
<path fill="none" stroke="black" d="M4521.88,-378.68C4602.19,-379.82 4705.57,-381.57 4797.42,-384 4810.37,-384.34 4823.8,-384.74 4837.28,-385.17"/>
<polygon fill="black" stroke="black" points="4837.48,-388.67 4847.59,-385.5 4837.71,-381.68 4837.48,-388.67"/>
<text text-anchor="middle" x="4702.82" y="-386.8" font-family="Times,serif" font-size="14.00">preferredType</text>
</g>
<!-- object_0000000047d2d358000000005b2771cf&#45;&gt;object_0000000047d2d344000000005b2771cf -->
<g id="edge23" class="edge">
<title>object_0000000047d2d358000000005b2771cf&#45;&gt;object_0000000047d2d344000000005b2771cf</title>
<path fill="none" stroke="black" d="M4783.81,-415.57C4811.83,-412.27 4843.91,-408.49 4874.38,-404.9"/>
<polygon fill="black" stroke="black" points="4875.12,-408.34 4884.64,-403.69 4874.3,-401.39 4875.12,-408.34"/>
<text text-anchor="middle" x="4818.92" y="-413.8" font-family="Times,serif" font-size="14.00">0</text>
</g>
<!-- object_0000000047d2d363000000005b2771cf -->
<g id="node22" class="node">
<title>object_0000000047d2d363000000005b2771cf</title>
<g id="a_node22"><a xlink:href="file://vendor/innmind/media-type/src/MediaType.php" xlink:title="Innmind\\MediaType\\MediaType">
<ellipse fill="none" stroke="black" cx="5339.44" cy="-391" rx="125.06" ry="18"/>
<text text-anchor="middle" x="5339.44" y="-386.8" font-family="Times,serif" font-size="14.00">Innmind\MediaType\MediaType</text>
</a>
</g>
</g>
<!-- object_0000000047d2d344000000005b2771cf&#45;&gt;object_0000000047d2d363000000005b2771cf -->
<g id="edge24" class="edge">
<title>object_0000000047d2d344000000005b2771cf&#45;&gt;object_0000000047d2d363000000005b2771cf</title>
<path fill="none" stroke="black" d="M5146.53,-391C5165.67,-391 5185.14,-391 5203.97,-391"/>
<polygon fill="black" stroke="black" points="5204.06,-394.5 5214.06,-391 5204.06,-387.5 5204.06,-394.5"/>
<text text-anchor="middle" x="5180.22" y="-393.8" font-family="Times,serif" font-size="14.00">mime</text>
</g>
<!-- object_0000000047d2d34a000000005b2771cf -->
<g id="node23" class="node">
<title>object_0000000047d2d34a000000005b2771cf</title>
<g id="a_node23"><a xlink:href="file://vendor/innmind/immutable/src/Set.php" xlink:title="Innmind\\Immutable\\Set">
<ellipse fill="none" stroke="black" cx="5679.31" cy="-418" rx="94.7" ry="18"/>
<text text-anchor="middle" x="5679.31" y="-413.8" font-family="Times,serif" font-size="14.00">Innmind\Immutable\Set</text>
</a>
</g>
</g>
<!-- object_0000000047d2d363000000005b2771cf&#45;&gt;object_0000000047d2d34a000000005b2771cf -->
<g id="edge25" class="edge">
<title>object_0000000047d2d363000000005b2771cf&#45;&gt;object_0000000047d2d34a000000005b2771cf</title>
<path fill="none" stroke="black" d="M5449.21,-399.69C5491.8,-403.1 5540.27,-406.97 5581.62,-410.27"/>
<polygon fill="black" stroke="black" points="5581.44,-413.77 5591.69,-411.08 5582,-406.79 5581.44,-413.77"/>
<text text-anchor="middle" x="5513.43" y="-408.8" font-family="Times,serif" font-size="14.00">topLevels</text>
</g>
<!-- object_0000000047d2d36c000000005b2771cf -->
<g id="node24" class="node">
<title>object_0000000047d2d36c000000005b2771cf</title>
<g id="a_node24"><a xlink:href="file://vendor/innmind/immutable/src/Sequence.php" xlink:title="Innmind\\Immutable\\Sequence">
<ellipse fill="none" stroke="black" cx="5679.31" cy="-364" rx="117.37" ry="18"/>
<text text-anchor="middle" x="5679.31" y="-359.8" font-family="Times,serif" font-size="14.00">Innmind\Immutable\Sequence</text>
</a>
</g>
</g>
<!-- object_0000000047d2d363000000005b2771cf&#45;&gt;object_0000000047d2d36c000000005b2771cf -->
<g id="edge26" class="edge">
<title>object_0000000047d2d363000000005b2771cf&#45;&gt;object_0000000047d2d36c000000005b2771cf</title>
<path fill="none" stroke="black" d="M5449.21,-382.31C5486.06,-379.36 5527.31,-376.07 5564.54,-373.09"/>
<polygon fill="black" stroke="black" points="5565.24,-376.55 5574.93,-372.26 5564.68,-369.57 5565.24,-376.55"/>
<text text-anchor="middle" x="5513.43" y="-381.8" font-family="Times,serif" font-size="14.00">parameters</text>
</g>
<!-- object_0000000047d2d379000000005b2771cf&#45;&gt;object_0000000047d2d367000000005b2771cf -->
<g id="edge30" class="edge">
<title>object_0000000047d2d379000000005b2771cf&#45;&gt;object_0000000047d2d367000000005b2771cf</title>
<path fill="none" stroke="black" d="M2150.62,-515.11C2193.53,-494.48 2268.19,-461.2 2335.98,-444 2415.47,-423.83 2505.86,-413.29 2581.9,-407.81"/>
<polygon fill="black" stroke="black" points="2582.32,-411.29 2592.05,-407.1 2581.83,-404.3 2582.32,-411.29"/>
<text text-anchor="middle" x="2392.36" y="-446.8" font-family="Times,serif" font-size="14.00">encode</text>
</g>
<!-- object_0000000047d2d379000000005b2771cf&#45;&gt;object_0000000047d2d3b9000000005b2771cf -->
<g id="edge29" class="edge">
<title>object_0000000047d2d379000000005b2771cf&#45;&gt;object_0000000047d2d3b9000000005b2771cf</title>
<path fill="none" stroke="black" d="M2143.47,-551.08C2201.59,-586.44 2338.79,-663 2466.73,-683 2705.07,-720.25 3403.68,-712.04 3730.3,-705.81"/>
<polygon fill="black" stroke="black" points="3730.4,-709.31 3740.33,-705.62 3730.27,-702.31 3730.4,-709.31"/>
<text text-anchor="middle" x="3117.04" y="-713.8" font-family="Times,serif" font-size="14.00">decode</text>
</g>
<!-- object_0000000047d2d3b3000000005b2771cf -->
<g id="node26" class="node">
<title>object_0000000047d2d3b3000000005b2771cf</title>
<g id="a_node26"><a xlink:href="file://vendor/innmind/filesystem/src/Adapter/Filesystem.php" xlink:title="Innmind\\Filesystem\\Adapter\\Filesystem">
<polygon fill="#ffb600" stroke="black" points="2871.93,-674 2630.85,-674 2630.85,-638 2871.93,-638 2871.93,-674"/>
<text text-anchor="middle" x="2751.39" y="-651.8" font-family="Times,serif" font-size="14.00">Innmind\Filesystem\Adapter\Filesystem</text>
</a>
</g>
</g>
<!-- object_0000000047d2d379000000005b2771cf&#45;&gt;object_0000000047d2d3b3000000005b2771cf -->
<g id="edge28" class="edge">
<title>object_0000000047d2d379000000005b2771cf&#45;&gt;object_0000000047d2d3b3000000005b2771cf</title>
<path fill="none" stroke="black" d="M2167.55,-550.43C2235.8,-572.29 2358.81,-609.29 2466.73,-629 2516.59,-638.11 2571.98,-644.25 2620.49,-648.34"/>
<polygon fill="black" stroke="black" points="2620.47,-651.85 2630.73,-649.18 2621.05,-644.87 2620.47,-651.85"/>
<text text-anchor="middle" x="2392.36" y="-627.8" font-family="Times,serif" font-size="14.00">filesystem</text>
</g>
<!-- object_0000000047d2d37e000000005b2771cf -->
<g id="node27" class="node">
<title>object_0000000047d2d37e000000005b2771cf</title>
<g id="a_node27"><a xlink:href="file://src/Serializer/Denormalizer/DenormalizeCapabilitiesNames.php" xlink:title="Innmind\\Rest\\Client\\Serializer\\Denormalizer\\DenormalizeCapabilitiesNames">
<ellipse fill="none" stroke="black" cx="2751.39" cy="-602" rx="284.82" ry="18"/>
<text text-anchor="middle" x="2751.39" y="-597.8" font-family="Times,serif" font-size="14.00">Innmind\Rest\Client\Serializer\Denormalizer\DenormalizeCapabilitiesNames</text>
</a>
</g>
</g>
<!-- object_0000000047d2d379000000005b2771cf&#45;&gt;object_0000000047d2d37e000000005b2771cf -->
<g id="edge31" class="edge">
<title>object_0000000047d2d379000000005b2771cf&#45;&gt;object_0000000047d2d37e000000005b2771cf</title>
<path fill="none" stroke="black" d="M2232.06,-547.7C2300.46,-556.1 2388.43,-566.6 2466.73,-575 2502.59,-578.85 2541.02,-582.69 2577.66,-586.22"/>
<polygon fill="black" stroke="black" points="2577.66,-589.74 2587.95,-587.21 2578.33,-582.77 2577.66,-589.74"/>
<text text-anchor="middle" x="2392.36" y="-574.8" font-family="Times,serif" font-size="14.00">denormalizeNames</text>
</g>
<!-- object_0000000047d2d35d000000005b2771cf -->
<g id="node28" class="node">
<title>object_0000000047d2d35d000000005b2771cf</title>
<g id="a_node28"><a xlink:href="file://src/Serializer/Denormalizer/DenormalizeDefinition.php" xlink:title="Innmind\\Rest\\Client\\Serializer\\Denormalizer\\DenormalizeDefinition">
<ellipse fill="none" stroke="black" cx="3903.33" cy="-509" rx="253.95" ry="18"/>
<text text-anchor="middle" x="3903.33" y="-504.8" font-family="Times,serif" font-size="14.00">Innmind\Rest\Client\Serializer\Denormalizer\DenormalizeDefinition</text>
</a>
</g>
</g>
<!-- object_0000000047d2d379000000005b2771cf&#45;&gt;object_0000000047d2d35d000000005b2771cf -->
<g id="edge32" class="edge">
<title>object_0000000047d2d379000000005b2771cf&#45;&gt;object_0000000047d2d35d000000005b2771cf</title>
<path fill="none" stroke="black" d="M2301.1,-525.75C2354.57,-523.92 2412.95,-522.14 2466.73,-521 2876.15,-512.31 3351.38,-509.83 3639.3,-509.17"/>
<polygon fill="black" stroke="black" points="3639.47,-512.67 3649.46,-509.15 3639.45,-505.67 3639.47,-512.67"/>
<text text-anchor="middle" x="3117.04" y="-514.8" font-family="Times,serif" font-size="14.00">denormalizeDefinition</text>
</g>
<!-- object_0000000047d2d37f000000005b2771cf -->
<g id="node29" class="node">
<title>object_0000000047d2d37f000000005b2771cf</title>
<g id="a_node29"><a xlink:href="file://src/Serializer/Normalizer/NormalizeDefinition.php" xlink:title="Innmind\\Rest\\Client\\Serializer\\Normalizer\\NormalizeDefinition">
<ellipse fill="none" stroke="black" cx="2751.39" cy="-548" rx="237.06" ry="18"/>
<text text-anchor="middle" x="2751.39" y="-543.8" font-family="Times,serif" font-size="14.00">Innmind\Rest\Client\Serializer\Normalizer\NormalizeDefinition</text>
</a>
</g>
</g>
<!-- object_0000000047d2d379000000005b2771cf&#45;&gt;object_0000000047d2d37f000000005b2771cf -->
<g id="edge33" class="edge">
<title>object_0000000047d2d379000000005b2771cf&#45;&gt;object_0000000047d2d37f000000005b2771cf</title>
<path fill="none" stroke="black" d="M2311.15,-537.63C2375.49,-539.15 2447.65,-540.85 2514.6,-542.43"/>
<polygon fill="black" stroke="black" points="2514.78,-545.94 2524.86,-542.68 2514.95,-538.94 2514.78,-545.94"/>
<text text-anchor="middle" x="2392.36" y="-542.8" font-family="Times,serif" font-size="14.00">normalizeDefinition</text>
</g>
<!-- object_0000000047d2d37c000000005b2771cf -->
<g id="node30" class="node">
<title>object_0000000047d2d37c000000005b2771cf</title>
<g id="a_node30"><a xlink:href="file://src/Server/Capabilities/Factory/Factory.php" xlink:title="Innmind\\Rest\\Client\\Server\\Capabilities\\Factory\\Factory">
<ellipse fill="none" stroke="black" cx="2751.39" cy="-456" rx="211.51" ry="18"/>
<text text-anchor="middle" x="2751.39" y="-451.8" font-family="Times,serif" font-size="14.00">Innmind\Rest\Client\Server\Capabilities\Factory\Factory</text>
</a>
</g>
</g>
<!-- object_0000000047d2d379000000005b2771cf&#45;&gt;object_0000000047d2d37c000000005b2771cf -->
<g id="edge34" class="edge">
<title>object_0000000047d2d379000000005b2771cf&#45;&gt;object_0000000047d2d37c000000005b2771cf</title>
<path fill="none" stroke="black" d="M2167.33,-515.53C2211.71,-501.61 2277.26,-483 2335.98,-474 2398.48,-464.42 2466.86,-459.3 2529.73,-456.7"/>
<polygon fill="black" stroke="black" points="2529.92,-460.19 2539.77,-456.3 2529.64,-453.2 2529.92,-460.19"/>
<text text-anchor="middle" x="2392.36" y="-476.8" font-family="Times,serif" font-size="14.00">make</text>
</g>
<!-- object_0000000047d2d372000000005b2771cf -->
<g id="node31" class="node">
<title>object_0000000047d2d372000000005b2771cf</title>
<g id="a_node31"><a xlink:href="file://src/Definition/Types.php" xlink:title="Innmind\\Rest\\Client\\Definition\\Types">
<ellipse fill="none" stroke="black" cx="4383.8" cy="-509" rx="144.2" ry="18"/>
<text text-anchor="middle" x="4383.8" y="-504.8" font-family="Times,serif" font-size="14.00">Innmind\Rest\Client\Definition\Types</text>
</a>
</g>
</g>
<!-- object_0000000047d2d35d000000005b2771cf&#45;&gt;object_0000000047d2d372000000005b2771cf -->
<g id="edge35" class="edge">
<title>object_0000000047d2d35d000000005b2771cf&#45;&gt;object_0000000047d2d372000000005b2771cf</title>
<path fill="none" stroke="black" d="M4157.23,-509C4181.86,-509 4206.29,-509 4229.49,-509"/>
<polygon fill="black" stroke="black" points="4229.7,-512.5 4239.7,-509 4229.7,-505.5 4229.7,-512.5"/>
<text text-anchor="middle" x="4198.38" y="-511.8" font-family="Times,serif" font-size="14.00">build</text>
</g>
<!-- object_0000000047d2d37c000000005b2771cf&#45;&gt;object_0000000047d2d3f4000000005b2771cf -->
<g id="edge37" class="edge">
<title>object_0000000047d2d37c000000005b2771cf&#45;&gt;object_0000000047d2d3f4000000005b2771cf</title>
<path fill="none" stroke="black" d="M2893.8,-442.64C2939.23,-438.32 2989.77,-433.49 3036.05,-429 3102.56,-422.55 3176.5,-415.26 3237.89,-409.18"/>
<polygon fill="black" stroke="black" points="3238.41,-412.64 3248.02,-408.17 3237.72,-405.68 3238.41,-412.64"/>
<text text-anchor="middle" x="3117.04" y="-428.8" font-family="Times,serif" font-size="14.00">transport</text>
</g>
<!-- object_0000000047d2d37c000000005b2771cf&#45;&gt;object_0000000047d2d3f0000000005b2771cf -->
<g id="edge38" class="edge">
<title>object_0000000047d2d37c000000005b2771cf&#45;&gt;object_0000000047d2d3f0000000005b2771cf</title>
<path fill="none" stroke="black" d="M2837.73,-472.46C2900.31,-479.29 2983.26,-476.64 3036.05,-429 3066.34,-401.67 3027.43,-369.91 3054.05,-339 3104.87,-280.01 3188.61,-251.54 3257.14,-237.81"/>
<polygon fill="black" stroke="black" points="3257.98,-241.21 3267.14,-235.88 3256.66,-234.33 3257.98,-241.21"/>
<text text-anchor="middle" x="3117.04" y="-341.8" font-family="Times,serif" font-size="14.00">resolver</text>
</g>
<!-- object_0000000047d2d37c000000005b2771cf&#45;&gt;object_0000000047d2d371000000005b2771cf -->
<g id="edge40" class="edge">
<title>object_0000000047d2d37c000000005b2771cf&#45;&gt;object_0000000047d2d371000000005b2771cf</title>
<path fill="none" stroke="black" d="M2956.17,-460.53C2984.52,-454.5 3012.1,-444.58 3036.05,-429 3049.73,-420.1 3040.95,-406.72 3054.05,-397 3088.26,-371.63 3192.73,-351.77 3272.31,-339.78"/>
<polygon fill="black" stroke="black" points="3273,-343.22 3282.38,-338.29 3271.97,-336.3 3273,-343.22"/>
<text text-anchor="middle" x="3117.04" y="-399.8" font-family="Times,serif" font-size="14.00">formats</text>
</g>
<!-- object_0000000047d2d37d000000005b2771cf -->
<g id="node33" class="node">
<title>object_0000000047d2d37d000000005b2771cf</title>
<g id="a_node33"><a xlink:href="file://src/Server/DefinitionFactory.php" xlink:title="Innmind\\Rest\\Client\\Server\\DefinitionFactory">
<ellipse fill="none" stroke="black" cx="3371.22" cy="-548" rx="173.4" ry="18"/>
<text text-anchor="middle" x="3371.22" y="-543.8" font-family="Times,serif" font-size="14.00">Innmind\Rest\Client\Server\DefinitionFactory</text>
</a>
</g>
</g>
<!-- object_0000000047d2d37c000000005b2771cf&#45;&gt;object_0000000047d2d37d000000005b2771cf -->
<g id="edge39" class="edge">
<title>object_0000000047d2d37c000000005b2771cf&#45;&gt;object_0000000047d2d37d000000005b2771cf</title>
<path fill="none" stroke="black" d="M2920.68,-445.2C3000.17,-443.83 3095.86,-447.6 3180.02,-466 3234.42,-477.89 3292.62,-505.41 3330.1,-525.29"/>
<polygon fill="black" stroke="black" points="3328.7,-528.51 3339.17,-530.17 3332.02,-522.35 3328.7,-528.51"/>
<text text-anchor="middle" x="3117.04" y="-468.8" font-family="Times,serif" font-size="14.00">definitionFactory</text>
</g>
<!-- object_0000000047d2d36a000000005b2771cf -->
<g id="node32" class="node">
<title>object_0000000047d2d36a000000005b2771cf</title>
<g id="a_node32"><a xlink:href="file://vendor/innmind/immutable/src/Set.php" xlink:title="Innmind\\Immutable\\Set">
<ellipse fill="none" stroke="black" cx="4702.82" cy="-509" rx="94.7" ry="18"/>
<text text-anchor="middle" x="4702.82" y="-504.8" font-family="Times,serif" font-size="14.00">Innmind\Immutable\Set</text>
</a>
</g>
</g>
<!-- object_0000000047d2d372000000005b2771cf&#45;&gt;object_0000000047d2d36a000000005b2771cf -->
<g id="edge36" class="edge">
<title>object_0000000047d2d372000000005b2771cf&#45;&gt;object_0000000047d2d36a000000005b2771cf</title>
<path fill="none" stroke="black" d="M4528.01,-509C4551.49,-509 4575.42,-509 4597.71,-509"/>
<polygon fill="black" stroke="black" points="4597.83,-512.5 4607.83,-509 4597.83,-505.5 4597.83,-512.5"/>
<text text-anchor="middle" x="4568.06" y="-511.8" font-family="Times,serif" font-size="14.00">defaults</text>
</g>
<!-- object_0000000047d2d37d000000005b2771cf&#45;&gt;object_0000000047d2d3b9000000005b2771cf -->
<g id="edge42" class="edge">
<title>object_0000000047d2d37d000000005b2771cf&#45;&gt;object_0000000047d2d3b9000000005b2771cf</title>
<path fill="none" stroke="black" d="M3430.47,-564.92C3529.35,-593.65 3729.52,-651.8 3834.53,-682.3"/>
<polygon fill="black" stroke="black" points="3833.81,-685.74 3844.39,-685.17 3835.77,-679.02 3833.81,-685.74"/>
<text text-anchor="middle" x="3597.01" y="-622.8" font-family="Times,serif" font-size="14.00">decode</text>
</g>
<!-- object_0000000047d2d37d000000005b2771cf&#45;&gt;object_0000000047d2d35d000000005b2771cf -->
<g id="edge41" class="edge">
<title>object_0000000047d2d37d000000005b2771cf&#45;&gt;object_0000000047d2d35d000000005b2771cf</title>
<path fill="none" stroke="black" d="M3513.24,-537.63C3575.52,-533.04 3649.61,-527.59 3716.34,-522.68"/>
<polygon fill="black" stroke="black" points="3716.84,-526.16 3726.56,-521.93 3716.33,-519.17 3716.84,-526.16"/>
<text text-anchor="middle" x="3597.01" y="-535.8" font-family="Times,serif" font-size="14.00">denormalize</text>
</g>
</g>
</svg>
