<?xml version="1.0" encoding="UTF-8" standalone="no"?>
<!DOCTYPE svg PUBLIC "-//W3C//DTD SVG 1.1//EN"
 "http://www.w3.org/Graphics/SVG/1.1/DTD/svg11.dtd">
<!-- Generated by graphviz version 2.40.1 (20161225.0304)
 -->
<!-- Title: G Pages: 1 -->
<svg width="6108pt" height="762pt"
 viewBox="0.00 0.00 6108.20 762.00" xmlns="http://www.w3.org/2000/svg" xmlns:xlink="http://www.w3.org/1999/xlink">
<g id="graph0" class="graph" transform="scale(1 1) rotate(0) translate(4 758)">
<title>G</title>
<polygon fill="#ffffff" stroke="transparent" points="-4,4 -4,-758 6104.1988,-758 6104.1988,4 -4,4"/>
<!-- object_000000000f18e45f00000000384629db -->
<g id="node1" class="node">
<title>object_000000000f18e45f00000000384629db</title>
<g id="a_node1"><a xlink:href="file:///src/Client/Client.php" xlink:title="Innmind\\Rest\\Client\\Client\\Client">
<polygon fill="#00ff00" stroke="#000000" points="301.4747,-272 226.0665,-290 75.2499,-290 -.1584,-272 75.2499,-254 226.0665,-254 301.4747,-272"/>
<text text-anchor="middle" x="150.6582" y="-267.8" font-family="Times,serif" font-size="14.00" fill="#000000">Innmind\Rest\Client\Client\Client</text>
</a>
</g>
</g>
<!-- object_000000000f18e44400000000384629db -->
<g id="node2" class="node">
<title>object_000000000f18e44400000000384629db</title>
<g id="a_node2"><a xlink:href="file:///src/Server/RetryServerFactory.php" xlink:title="Innmind\\Rest\\Client\\Server\\RetryServerFactory">
<ellipse fill="none" stroke="#000000" cx="547.6966" cy="-272" rx="180.1258" ry="18"/>
<text text-anchor="middle" x="547.6966" y="-267.8" font-family="Times,serif" font-size="14.00" fill="#000000">Innmind\Rest\Client\Server\RetryServerFactory</text>
</a>
</g>
</g>
<!-- object_000000000f18e45f00000000384629db&#45;&gt;object_000000000f18e44400000000384629db -->
<g id="edge1" class="edge">
<title>object_000000000f18e45f00000000384629db&#45;&gt;object_000000000f18e44400000000384629db</title>
<path fill="none" stroke="#000000" d="M301.3275,-272C319.6439,-272 338.5382,-272 357.3348,-272"/>
<polygon fill="#000000" stroke="#000000" points="357.456,-275.5001 367.456,-272 357.456,-268.5001 357.456,-275.5001"/>
<text text-anchor="middle" x="334.4751" y="-274.8" font-family="Times,serif" font-size="14.00" fill="#000000">make</text>
</g>
<!-- object_000000000f18e44100000000384629db -->
<g id="node3" class="node">
<title>object_000000000f18e44100000000384629db</title>
<g id="a_node3"><a xlink:href="file:///src/Server/ServerFactory.php" xlink:title="Innmind\\Rest\\Client\\Server\\ServerFactory">
<ellipse fill="none" stroke="#000000" cx="954.4924" cy="-272" rx="160.3311" ry="18"/>
<text text-anchor="middle" x="954.4924" y="-267.8" font-family="Times,serif" font-size="14.00" fill="#000000">Innmind\Rest\Client\Server\ServerFactory</text>
</a>
</g>
</g>
<!-- object_000000000f18e44400000000384629db&#45;&gt;object_000000000f18e44100000000384629db -->
<g id="edge2" class="edge">
<title>object_000000000f18e44400000000384629db&#45;&gt;object_000000000f18e44100000000384629db</title>
<path fill="none" stroke="#000000" d="M727.8997,-272C746.4587,-272 765.2787,-272 783.7308,-272"/>
<polygon fill="#000000" stroke="#000000" points="783.9401,-275.5001 793.9401,-272 783.9401,-268.5001 783.9401,-275.5001"/>
<text text-anchor="middle" x="760.9182" y="-274.8" font-family="Times,serif" font-size="14.00" fill="#000000">make</text>
</g>
<!-- object_000000000f18e4e700000000384629db -->
<g id="node4" class="node">
<title>object_000000000f18e4e700000000384629db</title>
<g id="a_node4"><a xlink:href="file:///vendor/innmind/http-transport/src/DefaultTransport.php" xlink:title="Innmind\\HttpTransport\\DefaultTransport">
<polygon fill="#ffb600" stroke="#000000" points="3484.8629,-427 3238.9137,-427 3238.9137,-391 3484.8629,-391 3484.8629,-427"/>
<text text-anchor="middle" x="3361.8883" y="-404.8" font-family="Times,serif" font-size="14.00" fill="#000000">Innmind\HttpTransport\DefaultTransport</text>
</a>
</g>
</g>
<!-- object_000000000f18e44100000000384629db&#45;&gt;object_000000000f18e4e700000000384629db -->
<g id="edge3" class="edge">
<title>object_000000000f18e44100000000384629db&#45;&gt;object_000000000f18e4e700000000384629db</title>
<path fill="none" stroke="#000000" d="M1021.7985,-288.3955C1128.2196,-312.841 1342.1793,-356 1526.2982,-356 1526.2982,-356 1526.2982,-356 2383.0247,-356 2733.169,-356 2822.4979,-335.048 3170.6869,-372 3204.9652,-375.6378 3242.2664,-382.2465 3274.7459,-388.8828"/>
<polygon fill="#000000" stroke="#000000" points="3274.1597,-392.3357 3284.6622,-390.94 3275.5817,-385.4816 3274.1597,-392.3357"/>
<text text-anchor="middle" x="2104.5168" y="-358.8" font-family="Times,serif" font-size="14.00" fill="#000000">transport</text>
</g>
<!-- object_000000000f18e4e100000000384629db -->
<g id="node5" class="node">
<title>object_000000000f18e4e100000000384629db</title>
<g id="a_node5"><a xlink:href="file:///vendor/innmind/url-resolver/src/UrlResolver.php" xlink:title="Innmind\\UrlResolver\\UrlResolver">
<polygon fill="#ffb600" stroke="#000000" points="3465.9645,-243 3257.8121,-243 3257.8121,-207 3465.9645,-207 3465.9645,-243"/>
<text text-anchor="middle" x="3361.8883" y="-220.8" font-family="Times,serif" font-size="14.00" fill="#000000">Innmind\UrlResolver\UrlResolver</text>
</a>
</g>
</g>
<!-- object_000000000f18e44100000000384629db&#45;&gt;object_000000000f18e4e100000000384629db -->
<g id="edge4" class="edge">
<title>object_000000000f18e44100000000384629db&#45;&gt;object_000000000f18e4e100000000384629db</title>
<path fill="none" stroke="#000000" d="M1008.9728,-255.0009C1071.7635,-236.1391 1178.3757,-206.3446 1272.1843,-191 1383.9537,-172.7174 1413.0435,-172 1526.2982,-172 1526.2982,-172 1526.2982,-172 2742.0609,-172 2918.9362,-172 3123.1739,-193.6905 3247.3779,-209.3194"/>
<polygon fill="#000000" stroke="#000000" points="3247.3,-212.8374 3257.6607,-210.6225 3248.1801,-205.893 3247.3,-212.8374"/>
<text text-anchor="middle" x="2104.5168" y="-174.8" font-family="Times,serif" font-size="14.00" fill="#000000">resolver</text>
</g>
<!-- object_000000000f18e4bc00000000384629db -->
<g id="node6" class="node">
<title>object_000000000f18e4bc00000000384629db</title>
<g id="a_node6"><a xlink:href="file:///src/Response/ExtractIdentity.php" xlink:title="Innmind\\Rest\\Client\\Response\\ExtractIdentity">
<ellipse fill="none" stroke="#000000" cx="1526.2982" cy="-218" rx="174.3548" ry="18"/>
<text text-anchor="middle" x="1526.2982" y="-213.8" font-family="Times,serif" font-size="14.00" fill="#000000">Innmind\Rest\Client\Response\ExtractIdentity</text>
</a>
</g>
</g>
<!-- object_000000000f18e44100000000384629db&#45;&gt;object_000000000f18e4bc00000000384629db -->
<g id="edge5" class="edge">
<title>object_000000000f18e44100000000384629db&#45;&gt;object_000000000f18e4bc00000000384629db</title>
<path fill="none" stroke="#000000" d="M1073.4808,-259.8402C1093.3229,-257.8571 1113.6947,-255.8483 1132.9079,-254 1216.2085,-245.9866 1309.4743,-237.4335 1384.2803,-230.6756"/>
<polygon fill="#000000" stroke="#000000" points="1384.5972,-234.1613 1394.2421,-229.7765 1383.9679,-227.1897 1384.5972,-234.1613"/>
<text text-anchor="middle" x="1193.5461" y="-256.8" font-family="Times,serif" font-size="14.00" fill="#000000">extractIdentity</text>
</g>
<!-- object_000000000f18e4bf00000000384629db -->
<g id="node7" class="node">
<title>object_000000000f18e4bf00000000384629db</title>
<g id="a_node7"><a xlink:href="file:///src/Response/ExtractIdentities.php" xlink:title="Innmind\\Rest\\Client\\Response\\ExtractIdentities">
<ellipse fill="none" stroke="#000000" cx="1526.2982" cy="-272" rx="179.6585" ry="18"/>
<text text-anchor="middle" x="1526.2982" y="-267.8" font-family="Times,serif" font-size="14.00" fill="#000000">Innmind\Rest\Client\Response\ExtractIdentities</text>
</a>
</g>
</g>
<!-- object_000000000f18e44100000000384629db&#45;&gt;object_000000000f18e4bf00000000384629db -->
<g id="edge6" class="edge">
<title>object_000000000f18e44100000000384629db&#45;&gt;object_000000000f18e4bf00000000384629db</title>
<path fill="none" stroke="#000000" d="M1114.9131,-272C1183.7749,-272 1264.7525,-272 1336.5671,-272"/>
<polygon fill="#000000" stroke="#000000" points="1336.6375,-275.5001 1346.6374,-272 1336.6374,-268.5001 1336.6375,-275.5001"/>
<text text-anchor="middle" x="1193.5461" y="-274.8" font-family="Times,serif" font-size="14.00" fill="#000000">extractIdentities</text>
</g>
<!-- object_000000000f18e4b800000000384629db -->
<g id="node8" class="node">
<title>object_000000000f18e4b800000000384629db</title>
<g id="a_node8"><a xlink:href="file:///src/Serializer/Denormalizer/DenormalizeResource.php" xlink:title="Innmind\\Rest\\Client\\Serializer\\Denormalizer\\DenormalizeResource">
<ellipse fill="none" stroke="#000000" cx="1526.2982" cy="-126" rx="250.5264" ry="18"/>
<text text-anchor="middle" x="1526.2982" y="-121.8" font-family="Times,serif" font-size="14.00" fill="#000000">Innmind\Rest\Client\Serializer\Denormalizer\DenormalizeResource</text>
</a>
</g>
</g>
<!-- object_000000000f18e44100000000384629db&#45;&gt;object_000000000f18e4b800000000384629db -->
<g id="edge7" class="edge">
<title>object_000000000f18e44100000000384629db&#45;&gt;object_000000000f18e4b800000000384629db</title>
<path fill="none" stroke="#000000" d="M972.191,-253.7371C1002.0898,-224.2833 1065.9203,-167.2466 1132.9079,-144 1199.7195,-120.8145 1276.7663,-113.427 1344.8691,-112.8561"/>
<polygon fill="#000000" stroke="#000000" points="1345.2958,-116.3548 1355.2839,-112.8209 1345.272,-109.3548 1345.2958,-116.3548"/>
<text text-anchor="middle" x="1193.5461" y="-146.8" font-family="Times,serif" font-size="14.00" fill="#000000">denormalizeResource</text>
</g>
<!-- object_000000000f18e4bb00000000384629db -->
<g id="node9" class="node">
<title>object_000000000f18e4bb00000000384629db</title>
<g id="a_node9"><a xlink:href="file:///src/Serializer/Normalizer/NormalizeResource.php" xlink:title="Innmind\\Rest\\Client\\Serializer\\Normalizer\\NormalizeResource">
<ellipse fill="none" stroke="#000000" cx="1526.2982" cy="-72" rx="234.1387" ry="18"/>
<text text-anchor="middle" x="1526.2982" y="-67.8" font-family="Times,serif" font-size="14.00" fill="#000000">Innmind\Rest\Client\Serializer\Normalizer\NormalizeResource</text>
</a>
</g>
</g>
<!-- object_000000000f18e44100000000384629db&#45;&gt;object_000000000f18e4bb00000000384629db -->
<g id="edge8" class="edge">
<title>object_000000000f18e44100000000384629db&#45;&gt;object_000000000f18e4bb00000000384629db</title>
<path fill="none" stroke="#000000" d="M966.6404,-253.8598C992.3135,-217.2701 1056.0855,-135.2038 1132.9079,-101 1198.6489,-71.73 1276.7024,-61.6031 1345.8836,-59.8354"/>
<polygon fill="#000000" stroke="#000000" points="1346.0953,-63.332 1356.0237,-59.6339 1345.9562,-56.3333 1346.0953,-63.332"/>
<text text-anchor="middle" x="1193.5461" y="-103.8" font-family="Times,serif" font-size="14.00" fill="#000000">normalizeResource</text>
</g>
<!-- object_000000000f18e45400000000384629db -->
<g id="node10" class="node">
<title>object_000000000f18e45400000000384629db</title>
<g id="a_node10"><a xlink:href="file:///src/Serializer/Encode/Json.php" xlink:title="Innmind\\Rest\\Client\\Serializer\\Encode\\Json">
<ellipse fill="none" stroke="#000000" cx="2742.0609" cy="-402" rx="165.6437" ry="18"/>
<text text-anchor="middle" x="2742.0609" y="-397.8" font-family="Times,serif" font-size="14.00" fill="#000000">Innmind\Rest\Client\Serializer\Encode\Json</text>
</a>
</g>
</g>
<!-- object_000000000f18e44100000000384629db&#45;&gt;object_000000000f18e45400000000384629db -->
<g id="edge9" class="edge">
<title>object_000000000f18e44100000000384629db&#45;&gt;object_000000000f18e45400000000384629db</title>
<path fill="none" stroke="#000000" d="M977.9899,-289.8249C1010.671,-313.4159 1072.6467,-353.8991 1132.9079,-370 1401.042,-441.6416 2222.0011,-421.3662 2576.3557,-408.6873"/>
<polygon fill="#000000" stroke="#000000" points="2576.5772,-412.1817 2586.4446,-408.3238 2576.3251,-405.1862 2576.5772,-412.1817"/>
<text text-anchor="middle" x="1840.3985" y="-423.8" font-family="Times,serif" font-size="14.00" fill="#000000">encode</text>
</g>
<!-- object_000000000f18e49a00000000384629db -->
<g id="node11" class="node">
<title>object_000000000f18e49a00000000384629db</title>
<g id="a_node11"><a xlink:href="file:///src/Serializer/Decode/Json.php" xlink:title="Innmind\\Rest\\Client\\Serializer\\Decode\\Json">
<ellipse fill="none" stroke="#000000" cx="3894.0015" cy="-702" rx="166.1197" ry="18"/>
<text text-anchor="middle" x="3894.0015" y="-697.8" font-family="Times,serif" font-size="14.00" fill="#000000">Innmind\Rest\Client\Serializer\Decode\Json</text>
</a>
</g>
</g>
<!-- object_000000000f18e44100000000384629db&#45;&gt;object_000000000f18e49a00000000384629db -->
<g id="edge10" class="edge">
<title>object_000000000f18e44100000000384629db&#45;&gt;object_000000000f18e49a00000000384629db</title>
<path fill="none" stroke="#000000" d="M964.4267,-290.0594C1013.202,-376.067 1236.7,-740 1526.2982,-740 1526.2982,-740 1526.2982,-740 3361.8883,-740 3501.2935,-740 3660.7217,-726.8632 3768.434,-716.0376"/>
<polygon fill="#000000" stroke="#000000" points="3769.0979,-719.4884 3778.694,-714.9977 3768.392,-712.524 3769.0979,-719.4884"/>
<text text-anchor="middle" x="2383.0247" y="-742.8" font-family="Times,serif" font-size="14.00" fill="#000000">decode</text>
</g>
<!-- object_000000000f18e4b200000000384629db -->
<g id="node12" class="node">
<title>object_000000000f18e4b200000000384629db</title>
<g id="a_node12"><a xlink:href="file:///src/Translator/Specification/SpecificationTranslator.php" xlink:title="Innmind\\Rest\\Client\\Translator\\Specification\\SpecificationTranslator">
<ellipse fill="none" stroke="#000000" cx="1526.2982" cy="-18" rx="254.2279" ry="18"/>
<text text-anchor="middle" x="1526.2982" y="-13.8" font-family="Times,serif" font-size="14.00" fill="#000000">Innmind\Rest\Client\Translator\Specification\SpecificationTranslator</text>
</a>
</g>
</g>
<!-- object_000000000f18e44100000000384629db&#45;&gt;object_000000000f18e4b200000000384629db -->
<g id="edge11" class="edge">
<title>object_000000000f18e44100000000384629db&#45;&gt;object_000000000f18e4b200000000384629db</title>
<path fill="none" stroke="#000000" d="M962.7405,-253.8607C983.8065,-209.9348 1044.2574,-98.0181 1132.9079,-51 1203.6023,-13.5054 1291.6419,-3.3478 1366.4996,-3.3906"/>
<polygon fill="#000000" stroke="#000000" points="1366.4771,-6.8905 1376.5,-3.4565 1366.5233,.1094 1366.4771,-6.8905"/>
<text text-anchor="middle" x="1193.5461" y="-53.8" font-family="Times,serif" font-size="14.00" fill="#000000">translator</text>
</g>
<!-- object_000000000f18e45700000000384629db -->
<g id="node13" class="node">
<title>object_000000000f18e45700000000384629db</title>
<g id="a_node13"><a xlink:href="file:///src/Formats.php" xlink:title="Innmind\\Rest\\Client\\Formats">
<ellipse fill="none" stroke="#000000" cx="3361.8883" cy="-316" rx="113.5433" ry="18"/>
<text text-anchor="middle" x="3361.8883" y="-311.8" font-family="Times,serif" font-size="14.00" fill="#000000">Innmind\Rest\Client\Formats</text>
</a>
</g>
</g>
<!-- object_000000000f18e44100000000384629db&#45;&gt;object_000000000f18e45700000000384629db -->
<g id="edge12" class="edge">
<title>object_000000000f18e44100000000384629db&#45;&gt;object_000000000f18e45700000000384629db</title>
<path fill="none" stroke="#000000" d="M1069.7679,-284.5695C1129.9966,-290.4338 1204.9712,-296.6357 1272.1843,-299 2115.4558,-328.6633 2327.0395,-294.3215 3170.6869,-310 3193.2483,-310.4193 3217.3025,-311.0387 3240.4677,-311.7224"/>
<polygon fill="#000000" stroke="#000000" points="3240.5849,-315.2274 3250.6857,-312.0297 3240.7954,-308.2306 3240.5849,-315.2274"/>
<text text-anchor="middle" x="2104.5168" y="-313.8" font-family="Times,serif" font-size="14.00" fill="#000000">formats</text>
</g>
<!-- object_000000000f18e45900000000384629db -->
<g id="node14" class="node">
<title>object_000000000f18e45900000000384629db</title>
<g id="a_node14"><a xlink:href="file:///src/Server/Capabilities/RefreshLimitedFactory.php" xlink:title="Innmind\\Rest\\Client\\Server\\Capabilities\\RefreshLimitedFactory">
<ellipse fill="none" stroke="#000000" cx="1526.2982" cy="-497" rx="237.5735" ry="18"/>
<text text-anchor="middle" x="1526.2982" y="-492.8" font-family="Times,serif" font-size="14.00" fill="#000000">Innmind\Rest\Client\Server\Capabilities\RefreshLimitedFactory</text>
</a>
</g>
</g>
<!-- object_000000000f18e44100000000384629db&#45;&gt;object_000000000f18e45900000000384629db -->
<g id="edge13" class="edge">
<title>object_000000000f18e44100000000384629db&#45;&gt;object_000000000f18e45900000000384629db</title>
<path fill="none" stroke="#000000" d="M971.3175,-290.0232C1000.9162,-320.5744 1065.5742,-382.2936 1132.9079,-414 1207.2444,-449.0039 1296.3951,-469.3658 1371.0186,-481.1502"/>
<polygon fill="#000000" stroke="#000000" points="1370.5628,-484.6212 1380.9795,-482.6861 1371.6297,-477.703 1370.5628,-484.6212"/>
<text text-anchor="middle" x="1193.5461" y="-456.8" font-family="Times,serif" font-size="14.00" fill="#000000">capabilities</text>
</g>
<!-- object_000000000f18e44800000000384629db -->
<g id="node15" class="node">
<title>object_000000000f18e44800000000384629db</title>
<g id="a_node15"><a xlink:href="file:///src/Visitor/ResolveIdentity.php" xlink:title="Innmind\\Rest\\Client\\Visitor\\ResolveIdentity">
<ellipse fill="none" stroke="#000000" cx="2104.5168" cy="-225" rx="167.0543" ry="18"/>
<text text-anchor="middle" x="2104.5168" y="-220.8" font-family="Times,serif" font-size="14.00" fill="#000000">Innmind\Rest\Client\Visitor\ResolveIdentity</text>
</a>
</g>
</g>
<!-- object_000000000f18e4bc00000000384629db&#45;&gt;object_000000000f18e44800000000384629db -->
<g id="edge14" class="edge">
<title>object_000000000f18e4bc00000000384629db&#45;&gt;object_000000000f18e44800000000384629db</title>
<path fill="none" stroke="#000000" d="M1699.3911,-220.0955C1771.5246,-220.9687 1855.2099,-221.9819 1927.73,-222.8598"/>
<polygon fill="#000000" stroke="#000000" points="1927.8448,-226.3613 1937.8865,-222.9827 1927.9296,-219.3619 1927.8448,-226.3613"/>
<text text-anchor="middle" x="1840.3985" y="-224.8" font-family="Times,serif" font-size="14.00" fill="#000000">resolveIdentity</text>
</g>
<!-- object_000000000f18e4bf00000000384629db&#45;&gt;object_000000000f18e44800000000384629db -->
<g id="edge16" class="edge">
<title>object_000000000f18e4bf00000000384629db&#45;&gt;object_000000000f18e44800000000384629db</title>
<path fill="none" stroke="#000000" d="M1665.9002,-260.6526C1755.1285,-253.3997 1870.5697,-244.0162 1960.6218,-236.6964"/>
<polygon fill="#000000" stroke="#000000" points="1960.9559,-240.1809 1970.6394,-235.8821 1960.3887,-233.2039 1960.9559,-240.1809"/>
<text text-anchor="middle" x="1840.3985" y="-250.8" font-family="Times,serif" font-size="14.00" fill="#000000">resolveIdentity</text>
</g>
<!-- object_000000000f18ee6d00000000384629db -->
<g id="node16" class="node">
<title>object_000000000f18ee6d00000000384629db</title>
<g id="a_node16"><a xlink:href="file:///" xlink:title="ArrayObject">
<ellipse fill="none" stroke="#000000" cx="3894.0015" cy="-348" rx="54.1058" ry="18"/>
<text text-anchor="middle" x="3894.0015" y="-343.8" font-family="Times,serif" font-size="14.00" fill="#000000">ArrayObject</text>
</a>
</g>
</g>
<!-- object_000000000f18e45700000000384629db&#45;&gt;object_000000000f18ee6d00000000384629db -->
<g id="edge17" class="edge">
<title>object_000000000f18e45700000000384629db&#45;&gt;object_000000000f18ee6d00000000384629db</title>
<path fill="none" stroke="#000000" d="M3468.2904,-322.3988C3576.6353,-328.9144 3741.033,-338.8008 3830.5216,-344.1825"/>
<polygon fill="#000000" stroke="#000000" points="3830.3348,-347.6775 3840.5269,-344.7842 3830.755,-340.6901 3830.3348,-347.6775"/>
<text text-anchor="middle" x="3587.683" y="-333.8" font-family="Times,serif" font-size="14.00" fill="#000000">formats</text>
</g>
<!-- object_000000000f18e45e00000000384629db -->
<g id="node17" class="node">
<title>object_000000000f18e45e00000000384629db</title>
<g id="a_node17"><a xlink:href="file:///vendor/willdurand/negotiation/src/Negotiation/Negotiator.php" xlink:title="Negotiation\\Negotiator">
<ellipse fill="none" stroke="#000000" cx="3894.0015" cy="-294" rx="92.267" ry="18"/>
<text text-anchor="middle" x="3894.0015" y="-289.8" font-family="Times,serif" font-size="14.00" fill="#000000">Negotiation\Negotiator</text>
</a>
</g>
</g>
<!-- object_000000000f18e45700000000384629db&#45;&gt;object_000000000f18e45e00000000384629db -->
<g id="edge18" class="edge">
<title>object_000000000f18e45700000000384629db&#45;&gt;object_000000000f18e45e00000000384629db</title>
<path fill="none" stroke="#000000" d="M3464.5452,-308.2332C3493.1919,-306.2801 3524.342,-304.3562 3553.0897,-303 3633.2505,-299.2184 3724.0947,-296.9183 3791.838,-295.5909"/>
<polygon fill="#000000" stroke="#000000" points="3792.1527,-299.0856 3802.0836,-295.3941 3792.0182,-292.0869 3792.1527,-299.0856"/>
<text text-anchor="middle" x="3587.683" y="-305.8" font-family="Times,serif" font-size="14.00" fill="#000000">negotiator</text>
</g>
<!-- object_000000000f18e44e00000000384629db -->
<g id="node24" class="node">
<title>object_000000000f18e44e00000000384629db</title>
<g id="a_node24"><a xlink:href="file:///src/Server/Capabilities/CacheFactory.php" xlink:title="Innmind\\Rest\\Client\\Server\\Capabilities\\CacheFactory">
<ellipse fill="none" stroke="#000000" cx="2104.5168" cy="-533" rx="204.264" ry="18"/>
<text text-anchor="middle" x="2104.5168" y="-528.8" font-family="Times,serif" font-size="14.00" fill="#000000">Innmind\Rest\Client\Server\Capabilities\CacheFactory</text>
</a>
</g>
</g>
<!-- object_000000000f18e45900000000384629db&#45;&gt;object_000000000f18e44e00000000384629db -->
<g id="edge26" class="edge">
<title>object_000000000f18e45900000000384629db&#45;&gt;object_000000000f18e44e00000000384629db</title>
<path fill="none" stroke="#000000" d="M1710.0447,-508.4401C1779.5428,-512.7671 1858.4513,-517.6799 1927.3348,-521.9686"/>
<polygon fill="#000000" stroke="#000000" points="1927.2247,-525.4684 1937.4229,-522.5967 1927.6597,-518.482 1927.2247,-525.4684"/>
<text text-anchor="middle" x="1840.3985" y="-520.8" font-family="Times,serif" font-size="14.00" fill="#000000">make</text>
</g>
<!-- object_000000000f18e44800000000384629db&#45;&gt;object_000000000f18e4e100000000384629db -->
<g id="edge15" class="edge">
<title>object_000000000f18e44800000000384629db&#45;&gt;object_000000000f18e4e100000000384629db</title>
<path fill="none" stroke="#000000" d="M2271.8109,-225C2531.4712,-225 3024.7639,-225 3247.5833,-225"/>
<polygon fill="#000000" stroke="#000000" points="3247.6636,-228.5001 3257.6636,-225 3247.6635,-221.5001 3247.6636,-228.5001"/>
<text text-anchor="middle" x="2742.0609" y="-227.8" font-family="Times,serif" font-size="14.00" fill="#000000">resolver</text>
</g>
<!-- object_000000000f18ee6a00000000384629db -->
<g id="node18" class="node">
<title>object_000000000f18ee6a00000000384629db</title>
<g id="a_node18"><a xlink:href="file:///vendor/innmind/immutable/src/Pair.php" xlink:title="Innmind\\Immutable\\Pair">
<ellipse fill="none" stroke="#000000" cx="4356.6079" cy="-348" rx="97.588" ry="18"/>
<text text-anchor="middle" x="4356.6079" y="-343.8" font-family="Times,serif" font-size="14.00" fill="#000000">Innmind\Immutable\Pair</text>
</a>
</g>
</g>
<!-- object_000000000f18ee6d00000000384629db&#45;&gt;object_000000000f18ee6a00000000384629db -->
<g id="edge19" class="edge">
<title>object_000000000f18ee6d00000000384629db&#45;&gt;object_000000000f18ee6a00000000384629db</title>
<path fill="none" stroke="#000000" d="M3948.4287,-348C4021.9402,-348 4154.5747,-348 4248.6844,-348"/>
<polygon fill="#000000" stroke="#000000" points="4248.8136,-351.5001 4258.8136,-348 4248.8135,-344.5001 4248.8136,-351.5001"/>
<text text-anchor="middle" x="4180.1165" y="-350.8" font-family="Times,serif" font-size="14.00" fill="#000000">0</text>
</g>
<!-- object_000000000f18e4ac00000000384629db -->
<g id="node19" class="node">
<title>object_000000000f18e4ac00000000384629db</title>
<g id="a_node19"><a xlink:href="file:///src/Format/Format.php" xlink:title="Innmind\\Rest\\Client\\Format\\Format">
<ellipse fill="none" stroke="#000000" cx="4705.3598" cy="-348" rx="138.1657" ry="18"/>
<text text-anchor="middle" x="4705.3598" y="-343.8" font-family="Times,serif" font-size="14.00" fill="#000000">Innmind\Rest\Client\Format\Format</text>
</a>
</g>
</g>
<!-- object_000000000f18ee6a00000000384629db&#45;&gt;object_000000000f18e4ac00000000384629db -->
<g id="edge20" class="edge">
<title>object_000000000f18ee6a00000000384629db&#45;&gt;object_000000000f18e4ac00000000384629db</title>
<path fill="none" stroke="#000000" d="M4454.2185,-348C4485.9476,-348 4521.9134,-348 4556.5091,-348"/>
<polygon fill="#000000" stroke="#000000" points="4556.7087,-351.5001 4566.7087,-348 4556.7087,-344.5001 4556.7087,-351.5001"/>
<text text-anchor="middle" x="4533.8683" y="-350.8" font-family="Times,serif" font-size="14.00" fill="#000000">value</text>
</g>
<!-- object_000000000f18efc900000000384629db -->
<g id="node20" class="node">
<title>object_000000000f18efc900000000384629db</title>
<g id="a_node20"><a xlink:href="file:///" xlink:title="ArrayObject">
<ellipse fill="none" stroke="#000000" cx="4963.5469" cy="-325" rx="54.1058" ry="18"/>
<text text-anchor="middle" x="4963.5469" y="-320.8" font-family="Times,serif" font-size="14.00" fill="#000000">ArrayObject</text>
</a>
</g>
</g>
<!-- object_000000000f18e4ac00000000384629db&#45;&gt;object_000000000f18efc900000000384629db -->
<g id="edge21" class="edge">
<title>object_000000000f18e4ac00000000384629db&#45;&gt;object_000000000f18efc900000000384629db</title>
<path fill="none" stroke="#000000" d="M4819.7319,-337.8114C4847.5853,-335.3302 4876.3651,-332.7664 4900.793,-330.5903"/>
<polygon fill="#000000" stroke="#000000" points="4901.3304,-334.0564 4910.9803,-329.6828 4900.7092,-327.084 4901.3304,-334.0564"/>
<text text-anchor="middle" x="4876.4684" y="-335.8" font-family="Times,serif" font-size="14.00" fill="#000000">types</text>
</g>
<!-- object_000000000f18e4ad00000000384629db -->
<g id="node21" class="node">
<title>object_000000000f18e4ad00000000384629db</title>
<g id="a_node21"><a xlink:href="file:///src/Format/MediaType.php" xlink:title="Innmind\\Rest\\Client\\Format\\MediaType">
<ellipse fill="none" stroke="#000000" cx="5547.2652" cy="-348" rx="152.8645" ry="18"/>
<text text-anchor="middle" x="5547.2652" y="-343.8" font-family="Times,serif" font-size="14.00" fill="#000000">Innmind\Rest\Client\Format\MediaType</text>
</a>
</g>
</g>
<!-- object_000000000f18e4ac00000000384629db&#45;&gt;object_000000000f18e4ad00000000384629db -->
<g id="edge22" class="edge">
<title>object_000000000f18e4ac00000000384629db&#45;&gt;object_000000000f18e4ad00000000384629db</title>
<path fill="none" stroke="#000000" d="M4841.8948,-351.0054C4864.3947,-351.4068 4887.4725,-351.7615 4909.2443,-352 5116.8273,-354.2737 5168.7597,-356.0352 5376.3329,-353 5380.5074,-352.939 5384.7391,-352.8695 5389.009,-352.7928"/>
<polygon fill="#000000" stroke="#000000" points="5389.1016,-356.2918 5399.0328,-352.6012 5388.9677,-349.2931 5389.1016,-356.2918"/>
<text text-anchor="middle" x="5075.3885" y="-356.8" font-family="Times,serif" font-size="14.00" fill="#000000">preferredType</text>
</g>
<!-- object_000000000f18efc600000000384629db -->
<g id="node22" class="node">
<title>object_000000000f18efc600000000384629db</title>
<g id="a_node22"><a xlink:href="file:///vendor/innmind/immutable/src/Pair.php" xlink:title="Innmind\\Immutable\\Pair">
<ellipse fill="none" stroke="#000000" cx="5230.4715" cy="-325" rx="97.588" ry="18"/>
<text text-anchor="middle" x="5230.4715" y="-320.8" font-family="Times,serif" font-size="14.00" fill="#000000">Innmind\Immutable\Pair</text>
</a>
</g>
</g>
<!-- object_000000000f18efc900000000384629db&#45;&gt;object_000000000f18efc600000000384629db -->
<g id="edge23" class="edge">
<title>object_000000000f18efc900000000384629db&#45;&gt;object_000000000f18efc600000000384629db</title>
<path fill="none" stroke="#000000" d="M5017.8848,-325C5048.0501,-325 5086.6556,-325 5122.6704,-325"/>
<polygon fill="#000000" stroke="#000000" points="5122.7506,-328.5001 5132.7506,-325 5122.7506,-321.5001 5122.7506,-328.5001"/>
<text text-anchor="middle" x="5075.3885" y="-327.8" font-family="Times,serif" font-size="14.00" fill="#000000">0</text>
</g>
<!-- object_000000000f18e44f00000000384629db -->
<g id="node23" class="node">
<title>object_000000000f18e44f00000000384629db</title>
<g id="a_node23"><a xlink:href="file:///vendor/innmind/filesystem/src/MediaType/MediaType.php" xlink:title="Innmind\\Filesystem\\MediaType\\MediaType">
<ellipse fill="none" stroke="#000000" cx="5934.1395" cy="-348" rx="166.1186" ry="18"/>
<text text-anchor="middle" x="5934.1395" y="-343.8" font-family="Times,serif" font-size="14.00" fill="#000000">Innmind\Filesystem\MediaType\MediaType</text>
</a>
</g>
</g>
<!-- object_000000000f18e4ad00000000384629db&#45;&gt;object_000000000f18e44f00000000384629db -->
<g id="edge25" class="edge">
<title>object_000000000f18e4ad00000000384629db&#45;&gt;object_000000000f18e44f00000000384629db</title>
<path fill="none" stroke="#000000" d="M5700.4459,-348C5719.3199,-348 5738.7289,-348 5757.9104,-348"/>
<polygon fill="#000000" stroke="#000000" points="5757.9164,-351.5001 5767.9164,-348 5757.9163,-344.5001 5757.9164,-351.5001"/>
<text text-anchor="middle" x="5734.1388" y="-350.8" font-family="Times,serif" font-size="14.00" fill="#000000">mime</text>
</g>
<!-- object_000000000f18efc600000000384629db&#45;&gt;object_000000000f18e4ad00000000384629db -->
<g id="edge24" class="edge">
<title>object_000000000f18efc600000000384629db&#45;&gt;object_000000000f18e4ad00000000384629db</title>
<path fill="none" stroke="#000000" d="M5321.2519,-331.5909C5347.9109,-333.5264 5377.7158,-335.6903 5406.7127,-337.7955"/>
<polygon fill="#000000" stroke="#000000" points="5406.7019,-341.3039 5416.9291,-338.5373 5407.2088,-334.3223 5406.7019,-341.3039"/>
<text text-anchor="middle" x="5361.1742" y="-337.8" font-family="Times,serif" font-size="14.00" fill="#000000">value</text>
</g>
<!-- object_000000000f18e44e00000000384629db&#45;&gt;object_000000000f18e45400000000384629db -->
<g id="edge29" class="edge">
<title>object_000000000f18e44e00000000384629db&#45;&gt;object_000000000f18e45400000000384629db</title>
<path fill="none" stroke="#000000" d="M2140.4595,-515.1127C2183.5768,-494.4845 2258.58,-461.2105 2326.6487,-444 2406.1797,-423.8914 2496.5757,-413.3537 2572.6884,-407.8547"/>
<polygon fill="#000000" stroke="#000000" points="2573.1201,-411.3331 2582.8516,-407.144 2572.6318,-404.3502 2573.1201,-411.3331"/>
<text text-anchor="middle" x="2383.0247" y="-446.8" font-family="Times,serif" font-size="14.00" fill="#000000">encode</text>
</g>
<!-- object_000000000f18e44e00000000384629db&#45;&gt;object_000000000f18e49a00000000384629db -->
<g id="edge28" class="edge">
<title>object_000000000f18e44e00000000384629db&#45;&gt;object_000000000f18e49a00000000384629db</title>
<path fill="none" stroke="#000000" d="M2133.2305,-551.0767C2191.5312,-586.414 2329.1472,-662.953 2457.4007,-683 2695.6726,-720.2438 3393.6585,-712.0635 3720.9113,-705.832"/>
<polygon fill="#000000" stroke="#000000" points="3721.0312,-709.3305 3730.9622,-705.639 3720.8968,-702.3318 3721.0312,-709.3305"/>
<text text-anchor="middle" x="3107.704" y="-713.8" font-family="Times,serif" font-size="14.00" fill="#000000">decode</text>
</g>
<!-- object_000000000f18e49d00000000384629db -->
<g id="node25" class="node">
<title>object_000000000f18e49d00000000384629db</title>
<g id="a_node25"><a xlink:href="file:///vendor/innmind/filesystem/src/Adapter/FilesystemAdapter.php" xlink:title="Innmind\\Filesystem\\Adapter\\FilesystemAdapter">
<polygon fill="#ffb600" stroke="#000000" points="2885.189,-674 2598.9327,-674 2598.9327,-638 2885.189,-638 2885.189,-674"/>
<text text-anchor="middle" x="2742.0609" y="-651.8" font-family="Times,serif" font-size="14.00" fill="#000000">Innmind\Filesystem\Adapter\FilesystemAdapter</text>
</a>
</g>
</g>
<!-- object_000000000f18e44e00000000384629db&#45;&gt;object_000000000f18e49d00000000384629db -->
<g id="edge27" class="edge">
<title>object_000000000f18e44e00000000384629db&#45;&gt;object_000000000f18e49d00000000384629db</title>
<path fill="none" stroke="#000000" d="M2157.3718,-550.4312C2225.8173,-572.2943 2349.1813,-609.2971 2457.4007,-629 2499.6761,-636.6968 2545.9078,-642.2756 2588.5869,-646.2886"/>
<polygon fill="#000000" stroke="#000000" points="2588.5012,-649.7953 2598.7792,-647.2238 2589.1409,-642.8246 2588.5012,-649.7953"/>
<text text-anchor="middle" x="2383.0247" y="-627.8" font-family="Times,serif" font-size="14.00" fill="#000000">filesystem</text>
</g>
<!-- object_000000000f18e46000000000384629db -->
<g id="node26" class="node">
<title>object_000000000f18e46000000000384629db</title>
<g id="a_node26"><a xlink:href="file:///src/Serializer/Denormalizer/DenormalizeCapabilitiesNames.php" xlink:title="Innmind\\Rest\\Client\\Serializer\\Denormalizer\\DenormalizeCapabilitiesNames">
<ellipse fill="none" stroke="#000000" cx="2742.0609" cy="-602" rx="284.8204" ry="18"/>
<text text-anchor="middle" x="2742.0609" y="-597.8" font-family="Times,serif" font-size="14.00" fill="#000000">Innmind\Rest\Client\Serializer\Denormalizer\DenormalizeCapabilitiesNames</text>
</a>
</g>
</g>
<!-- object_000000000f18e44e00000000384629db&#45;&gt;object_000000000f18e46000000000384629db -->
<g id="edge30" class="edge">
<title>object_000000000f18e44e00000000384629db&#45;&gt;object_000000000f18e46000000000384629db</title>
<path fill="none" stroke="#000000" d="M2222.4674,-547.7524C2290.9997,-556.1452 2379.0295,-566.6206 2457.4007,-575 2493.3829,-578.8472 2531.9543,-582.6926 2568.7229,-586.2254"/>
<polygon fill="#000000" stroke="#000000" points="2568.754,-589.7443 2579.0421,-587.2133 2569.4212,-582.7762 2568.754,-589.7443"/>
<text text-anchor="middle" x="2383.0247" y="-574.8" font-family="Times,serif" font-size="14.00" fill="#000000">denormalizeNames</text>
</g>
<!-- object_000000000f18e44500000000384629db -->
<g id="node27" class="node">
<title>object_000000000f18e44500000000384629db</title>
<g id="a_node27"><a xlink:href="file:///src/Serializer/Denormalizer/DenormalizeDefinition.php" xlink:title="Innmind\\Rest\\Client\\Serializer\\Denormalizer\\DenormalizeDefinition">
<ellipse fill="none" stroke="#000000" cx="3894.0015" cy="-525" rx="253.9508" ry="18"/>
<text text-anchor="middle" x="3894.0015" y="-520.8" font-family="Times,serif" font-size="14.00" fill="#000000">Innmind\Rest\Client\Serializer\Denormalizer\DenormalizeDefinition</text>
</a>
</g>
</g>
<!-- object_000000000f18e44e00000000384629db&#45;&gt;object_000000000f18e44500000000384629db -->
<g id="edge31" class="edge">
<title>object_000000000f18e44e00000000384629db&#45;&gt;object_000000000f18e44500000000384629db</title>
<path fill="none" stroke="#000000" d="M2290.3749,-525.495C2344.2457,-523.6407 2403.1581,-521.922 2457.4007,-521 2936.3044,-512.8597 3056.1242,-518.3311 3535.0897,-521 3566.9964,-521.1778 3600.4979,-521.4445 3633.6797,-521.7574"/>
<polygon fill="#000000" stroke="#000000" points="3633.9321,-525.2599 3643.9652,-521.8559 3633.9992,-518.2602 3633.9321,-525.2599"/>
<text text-anchor="middle" x="3107.704" y="-520.8" font-family="Times,serif" font-size="14.00" fill="#000000">denormalizeDefinition</text>
</g>
<!-- object_000000000f18e46100000000384629db -->
<g id="node28" class="node">
<title>object_000000000f18e46100000000384629db</title>
<g id="a_node28"><a xlink:href="file:///src/Serializer/Normalizer/NormalizeDefinition.php" xlink:title="Innmind\\Rest\\Client\\Serializer\\Normalizer\\NormalizeDefinition">
<ellipse fill="none" stroke="#000000" cx="2742.0609" cy="-548" rx="237.0631" ry="18"/>
<text text-anchor="middle" x="2742.0609" y="-543.8" font-family="Times,serif" font-size="14.00" fill="#000000">Innmind\Rest\Client\Serializer\Normalizer\NormalizeDefinition</text>
</a>
</g>
</g>
<!-- object_000000000f18e44e00000000384629db&#45;&gt;object_000000000f18e46100000000384629db -->
<g id="edge32" class="edge">
<title>object_000000000f18e44e00000000384629db&#45;&gt;object_000000000f18e46100000000384629db</title>
<path fill="none" stroke="#000000" d="M2301.8736,-537.6434C2366.2253,-539.1574 2438.3382,-540.8541 2505.2763,-542.429"/>
<polygon fill="#000000" stroke="#000000" points="2505.4628,-545.9342 2515.5424,-542.6705 2505.6276,-538.9362 2505.4628,-545.9342"/>
<text text-anchor="middle" x="2383.0247" y="-542.8" font-family="Times,serif" font-size="14.00" fill="#000000">normalizeDefinition</text>
</g>
<!-- object_000000000f18e46600000000384629db -->
<g id="node29" class="node">
<title>object_000000000f18e46600000000384629db</title>
<g id="a_node29"><a xlink:href="file:///src/Server/Capabilities/Factory/Factory.php" xlink:title="Innmind\\Rest\\Client\\Server\\Capabilities\\Factory\\Factory">
<ellipse fill="none" stroke="#000000" cx="2742.0609" cy="-456" rx="211.5145" ry="18"/>
<text text-anchor="middle" x="2742.0609" y="-451.8" font-family="Times,serif" font-size="14.00" fill="#000000">Innmind\Rest\Client\Server\Capabilities\Factory\Factory</text>
</a>
</g>
</g>
<!-- object_000000000f18e44e00000000384629db&#45;&gt;object_000000000f18e46600000000384629db -->
<g id="edge33" class="edge">
<title>object_000000000f18e44e00000000384629db&#45;&gt;object_000000000f18e46600000000384629db</title>
<path fill="none" stroke="#000000" d="M2157.2448,-515.5358C2201.8284,-501.6099 2267.6786,-483.0005 2326.6487,-474 2389.1367,-464.4626 2457.4795,-459.3438 2520.3607,-456.7367"/>
<polygon fill="#000000" stroke="#000000" points="2520.5503,-460.232 2530.4042,-456.3395 2520.2736,-453.2375 2520.5503,-460.232"/>
<text text-anchor="middle" x="2383.0247" y="-476.8" font-family="Times,serif" font-size="14.00" fill="#000000">make</text>
</g>
<!-- object_000000000f18e44c00000000384629db -->
<g id="node30" class="node">
<title>object_000000000f18e44c00000000384629db</title>
<g id="a_node30"><a xlink:href="file:///src/Definition/Types.php" xlink:title="Innmind\\Rest\\Client\\Definition\\Types">
<ellipse fill="none" stroke="#000000" cx="4356.6079" cy="-525" rx="144.2036" ry="18"/>
<text text-anchor="middle" x="4356.6079" y="-520.8" font-family="Times,serif" font-size="14.00" fill="#000000">Innmind\Rest\Client\Definition\Types</text>
</a>
</g>
</g>
<!-- object_000000000f18e44500000000384629db&#45;&gt;object_000000000f18e44c00000000384629db -->
<g id="edge34" class="edge">
<title>object_000000000f18e44500000000384629db&#45;&gt;object_000000000f18e44c00000000384629db</title>
<path fill="none" stroke="#000000" d="M4147.9735,-525C4166.3355,-525 4184.5051,-525 4202.0135,-525"/>
<polygon fill="#000000" stroke="#000000" points="4202.2422,-528.5001 4212.2422,-525 4202.2421,-521.5001 4202.2422,-528.5001"/>
<text text-anchor="middle" x="4180.1165" y="-527.8" font-family="Times,serif" font-size="14.00" fill="#000000">build</text>
</g>
<!-- object_000000000f18e46600000000384629db&#45;&gt;object_000000000f18e4e700000000384629db -->
<g id="edge35" class="edge">
<title>object_000000000f18e46600000000384629db&#45;&gt;object_000000000f18e4e700000000384629db</title>
<path fill="none" stroke="#000000" d="M2883.6551,-442.6016C2934.4305,-437.9998 2992.1194,-433.0041 3044.721,-429 3105.0524,-424.4075 3171.8976,-420.0795 3228.6044,-416.6321"/>
<polygon fill="#000000" stroke="#000000" points="3228.9351,-420.1186 3238.7054,-416.0208 3228.5122,-413.1314 3228.9351,-420.1186"/>
<text text-anchor="middle" x="3107.704" y="-431.8" font-family="Times,serif" font-size="14.00" fill="#000000">transport</text>
</g>
<!-- object_000000000f18e46600000000384629db&#45;&gt;object_000000000f18e4e100000000384629db -->
<g id="edge36" class="edge">
<title>object_000000000f18e46600000000384629db&#45;&gt;object_000000000f18e4e100000000384629db</title>
<path fill="none" stroke="#000000" d="M2827.3647,-472.5132C2890.2095,-479.4403 2973.643,-476.8826 3026.721,-429 3057.0097,-401.6761 3018.0828,-369.8934 3044.721,-339 3095.5256,-280.0799 3179.1137,-251.6115 3247.7265,-237.8569"/>
<polygon fill="#000000" stroke="#000000" points="3248.5762,-241.2577 3257.7354,-235.9324 3247.2544,-234.3836 3248.5762,-241.2577"/>
<text text-anchor="middle" x="3107.704" y="-341.8" font-family="Times,serif" font-size="14.00" fill="#000000">resolver</text>
</g>
<!-- object_000000000f18e46600000000384629db&#45;&gt;object_000000000f18e45700000000384629db -->
<g id="edge38" class="edge">
<title>object_000000000f18e46600000000384629db&#45;&gt;object_000000000f18e45700000000384629db</title>
<path fill="none" stroke="#000000" d="M2953.3062,-457.2863C2979.1822,-451.3916 3004.3498,-442.3699 3026.721,-429 3039.1009,-421.6014 3033.015,-410.4242 3044.721,-402 3081.8574,-375.275 3196.9585,-348.28 3277.7536,-331.8436"/>
<polygon fill="#000000" stroke="#000000" points="3278.8122,-335.2007 3287.9233,-329.7935 3277.4288,-328.3388 3278.8122,-335.2007"/>
<text text-anchor="middle" x="3107.704" y="-404.8" font-family="Times,serif" font-size="14.00" fill="#000000">formats</text>
</g>
<!-- object_000000000f18e46700000000384629db -->
<g id="node31" class="node">
<title>object_000000000f18e46700000000384629db</title>
<g id="a_node31"><a xlink:href="file:///src/Server/DefinitionFactory.php" xlink:title="Innmind\\Rest\\Client\\Server\\DefinitionFactory">
<ellipse fill="none" stroke="#000000" cx="3361.8883" cy="-548" rx="173.4031" ry="18"/>
<text text-anchor="middle" x="3361.8883" y="-543.8" font-family="Times,serif" font-size="14.00" fill="#000000">Innmind\Rest\Client\Server\DefinitionFactory</text>
</a>
</g>
</g>
<!-- object_000000000f18e46600000000384629db&#45;&gt;object_000000000f18e46700000000384629db -->
<g id="edge37" class="edge">
<title>object_000000000f18e46600000000384629db&#45;&gt;object_000000000f18e46700000000384629db</title>
<path fill="none" stroke="#000000" d="M2911.4983,-445.2181C2991.0206,-443.8938 3086.5895,-447.7027 3170.6869,-466 3225.3468,-477.8925 3283.8503,-505.4077 3321.5412,-525.29"/>
<polygon fill="#000000" stroke="#000000" points="3320.1914,-528.5371 3330.6602,-530.1662 3323.4923,-522.3642 3320.1914,-528.5371"/>
<text text-anchor="middle" x="3107.704" y="-468.8" font-family="Times,serif" font-size="14.00" fill="#000000">definitionFactory</text>
</g>
<!-- object_000000000f18e46700000000384629db&#45;&gt;object_000000000f18e49a00000000384629db -->
<g id="edge40" class="edge">
<title>object_000000000f18e46700000000384629db&#45;&gt;object_000000000f18e49a00000000384629db</title>
<path fill="none" stroke="#000000" d="M3420.6111,-564.9951C3519.8478,-593.7154 3720.1929,-651.6977 3825.6053,-682.2053"/>
<polygon fill="#000000" stroke="#000000" points="3824.9247,-685.6519 3835.5036,-685.07 3826.8708,-678.9279 3824.9247,-685.6519"/>
<text text-anchor="middle" x="3587.683" y="-622.8" font-family="Times,serif" font-size="14.00" fill="#000000">decode</text>
</g>
<!-- object_000000000f18e46700000000384629db&#45;&gt;object_000000000f18e44500000000384629db -->
<g id="edge39" class="edge">
<title>object_000000000f18e46700000000384629db&#45;&gt;object_000000000f18e44500000000384629db</title>
<path fill="none" stroke="#000000" d="M3521.9005,-541.0837C3567.572,-539.1095 3618.2284,-536.92 3667.0846,-534.8082"/>
<polygon fill="#000000" stroke="#000000" points="3667.3149,-538.3016 3677.1544,-534.373 3667.0126,-531.3082 3667.3149,-538.3016"/>
<text text-anchor="middle" x="3587.683" y="-541.8" font-family="Times,serif" font-size="14.00" fill="#000000">denormalize</text>
</g>
</g>
</svg>
